<svg width="135" height="135" viewBox="0 0 135 135" fill="none" xmlns="http://www.w3.org/2000/svg">
<rect width="135" height="135" rx="20" fill="#01A560"/>
<path d="M21.455 115V104.29H27.815V105.475H22.805V108.82H24.395C25.465 108.82 26.295 108.955 26.885 109.225C27.475 109.485 27.885 109.845 28.115 110.305C28.345 110.755 28.46 111.275 28.46 111.865C28.46 112.515 28.33 113.075 28.07 113.545C27.82 114.015 27.41 114.375 26.84 114.625C26.27 114.875 25.52 115 24.59 115H21.455ZM24.455 113.845C25.415 113.845 26.09 113.685 26.48 113.365C26.87 113.035 27.065 112.535 27.065 111.865C27.065 111.405 26.97 111.04 26.78 110.77C26.6 110.49 26.3 110.29 25.88 110.17C25.47 110.05 24.92 109.99 24.23 109.99H22.805V113.845H24.455ZM31.7485 111.865C31.7485 111.955 31.7435 112.085 31.7335 112.255C31.7335 112.415 31.7285 112.59 31.7185 112.78C31.7085 112.96 31.6985 113.135 31.6885 113.305C31.6785 113.465 31.6685 113.595 31.6585 113.695L35.9635 106.96H37.5835V115H36.3535V110.26C36.3535 110.1 36.3535 109.89 36.3535 109.63C36.3635 109.37 36.3735 109.115 36.3835 108.865C36.3935 108.605 36.4035 108.41 36.4135 108.28L32.1385 115H30.5035V106.96H31.7485V111.865ZM42.2572 106.81C42.8672 106.81 43.3972 106.895 43.8472 107.065C44.2972 107.225 44.6472 107.465 44.8972 107.785C45.1472 108.095 45.2722 108.475 45.2722 108.925C45.2722 109.415 45.1372 109.805 44.8672 110.095C44.5972 110.375 44.2272 110.58 43.7572 110.71V110.77C44.0772 110.86 44.3722 110.985 44.6422 111.145C44.9122 111.305 45.1272 111.515 45.2872 111.775C45.4572 112.035 45.5422 112.37 45.5422 112.78C45.5422 113.22 45.4172 113.62 45.1672 113.98C44.9272 114.34 44.5522 114.625 44.0422 114.835C43.5422 115.045 42.8972 115.15 42.1072 115.15C41.7272 115.15 41.3622 115.13 41.0122 115.09C40.6722 115.05 40.3622 114.99 40.0822 114.91C39.8122 114.83 39.5722 114.735 39.3622 114.625V113.44C39.7022 113.6 40.1022 113.745 40.5622 113.875C41.0322 114.005 41.5422 114.07 42.0922 114.07C42.4922 114.07 42.8522 114.025 43.1722 113.935C43.5022 113.845 43.7622 113.705 43.9522 113.515C44.1422 113.315 44.2372 113.045 44.2372 112.705C44.2372 112.395 44.1522 112.145 43.9822 111.955C43.8122 111.755 43.5572 111.605 43.2172 111.505C42.8872 111.405 42.4622 111.355 41.9422 111.355H40.8622V110.275H41.7322C42.4222 110.275 42.9722 110.185 43.3822 110.005C43.8022 109.815 44.0122 109.495 44.0122 109.045C44.0122 108.665 43.8522 108.38 43.5322 108.19C43.2222 108 42.7722 107.905 42.1822 107.905C41.7422 107.905 41.3522 107.95 41.0122 108.04C40.6822 108.12 40.3172 108.245 39.9172 108.415L39.4522 107.365C39.8822 107.175 40.3322 107.035 40.8022 106.945C41.2722 106.855 41.7572 106.81 42.2572 106.81ZM61.0372 106.96L57.7222 110.86L61.3222 115H59.8222L56.3422 110.92V115H55.1122V110.92L51.6322 115H50.1322L53.7322 110.86L50.4172 106.96H51.8572L55.1122 110.86V106.96H56.3422V110.86L59.6122 106.96H61.0372ZM69.3392 110.965C69.3392 111.855 69.1842 112.615 68.8742 113.245C68.5742 113.865 68.1442 114.34 67.5842 114.67C67.0242 114.99 66.3592 115.15 65.5892 115.15C64.8792 115.15 64.2442 114.99 63.6842 114.67C63.1342 114.34 62.6992 113.865 62.3792 113.245C62.0592 112.615 61.8992 111.855 61.8992 110.965C61.8992 109.635 62.2342 108.61 62.9042 107.89C63.5742 107.17 64.4842 106.81 65.6342 106.81C66.3642 106.81 67.0042 106.975 67.5542 107.305C68.1142 107.625 68.5492 108.095 68.8592 108.715C69.1792 109.325 69.3392 110.075 69.3392 110.965ZM65.6192 114.055C66.1292 114.055 66.5492 113.955 66.8792 113.755C67.2192 113.555 67.4742 113.26 67.6442 112.87C67.8242 112.47 67.9292 111.985 67.9592 111.415H63.2642C63.2942 111.985 63.3992 112.47 63.5792 112.87C63.7592 113.26 64.0142 113.555 64.3442 113.755C64.6842 113.955 65.1092 114.055 65.6192 114.055ZM65.6042 107.92C64.8642 107.92 64.3092 108.125 63.9392 108.535C63.5692 108.935 63.3492 109.53 63.2792 110.32H67.9592C67.9092 109.79 67.7892 109.35 67.5992 109C67.4192 108.64 67.1642 108.37 66.8342 108.19C66.5042 108.01 66.0942 107.92 65.6042 107.92ZM72.7513 106.96V110.305H77.1163V106.96H78.4363V115H77.1163V111.415H72.7513V115H71.4313V106.96H72.7513ZM84.177 118.6H82.857V115.03L79.707 106.96H81.087L82.767 111.37C82.917 111.77 83.062 112.195 83.202 112.645C83.342 113.085 83.437 113.43 83.487 113.68H83.562C83.622 113.43 83.717 113.085 83.847 112.645C83.977 112.205 84.122 111.78 84.282 111.37L85.947 106.96H87.327L84.177 115.03V118.6ZM89.9192 106.96V110.305H94.2842V106.96H95.6042V115H94.2842V111.415H89.9192V115H88.5992V106.96H89.9192ZM104.12 106.96V113.89H105.29V117.79H104.015V115H98.42V117.79H97.16V113.89H97.805C98.265 113.25 98.645 112.555 98.945 111.805C99.255 111.045 99.485 110.255 99.635 109.435C99.795 108.605 99.88 107.78 99.89 106.96H104.12ZM101.06 107.995C101.02 108.675 100.915 109.38 100.745 110.11C100.575 110.83 100.355 111.52 100.085 112.18C99.825 112.84 99.52 113.41 99.17 113.89H102.845V107.995H101.06ZM113.856 110.965C113.856 111.855 113.701 112.615 113.391 113.245C113.091 113.865 112.661 114.34 112.101 114.67C111.541 114.99 110.876 115.15 110.106 115.15C109.396 115.15 108.761 114.99 108.201 114.67C107.651 114.34 107.216 113.865 106.896 113.245C106.576 112.615 106.416 111.855 106.416 110.965C106.416 109.635 106.751 108.61 107.421 107.89C108.091 107.17 109.001 106.81 110.151 106.81C110.881 106.81 111.521 106.975 112.071 107.305C112.631 107.625 113.066 108.095 113.376 108.715C113.696 109.325 113.856 110.075 113.856 110.965ZM110.136 114.055C110.646 114.055 111.066 113.955 111.396 113.755C111.736 113.555 111.991 113.26 112.161 112.87C112.341 112.47 112.446 111.985 112.476 111.415H107.781C107.811 111.985 107.916 112.47 108.096 112.87C108.276 113.26 108.531 113.555 108.861 113.755C109.201 113.955 109.626 114.055 110.136 114.055ZM110.121 107.92C109.381 107.92 108.826 108.125 108.456 108.535C108.086 108.935 107.866 109.53 107.796 110.32H112.476C112.426 109.79 112.306 109.35 112.116 109C111.936 108.64 111.681 108.37 111.351 108.19C111.021 108.01 110.611 107.92 110.121 107.92Z" fill="white"/>
<path d="M78.3043 61.5217C78.3043 61.7524 78.2127 61.9735 78.0497 62.1366C77.8866 62.2997 77.6654 62.3913 77.4348 62.3913H63.5217C63.2911 62.3913 63.0699 62.2997 62.9069 62.1366C62.7438 61.9735 62.6522 61.7524 62.6522 61.5217C62.6522 61.2911 62.7438 61.0699 62.9069 60.9069C63.0699 60.7438 63.2911 60.6522 63.5217 60.6522H77.4348C77.6654 60.6522 77.8866 60.7438 78.0497 60.9069C78.2127 61.0699 78.3043 61.2911 78.3043 61.5217ZM77.4348 67.6087H63.5217C63.2911 67.6087 63.0699 67.7003 62.9069 67.8634C62.7438 68.0265 62.6522 68.2476 62.6522 68.4783C62.6522 68.7089 62.7438 68.9301 62.9069 69.0931C63.0699 69.2562 63.2911 69.3478 63.5217 69.3478H77.4348C77.6654 69.3478 77.8866 69.2562 78.0497 69.0931C78.2127 68.9301 78.3043 68.7089 78.3043 68.4783C78.3043 68.2476 78.2127 68.0265 78.0497 67.8634C77.8866 67.7003 77.6654 67.6087 77.4348 67.6087ZM87 47.6087V82.3913C87 83.0832 86.7252 83.7467 86.2359 84.2359C85.7467 84.7252 85.0832 85 84.3913 85H49.6087C48.9168 85 48.2533 84.7252 47.7641 84.2359C47.2748 83.7467 47 83.0832 47 82.3913V47.6087C47 46.9168 47.2748 46.2533 47.7641 45.7641C48.2533 45.2748 48.9168 45 49.6087 45H84.3913C85.0832 45 85.7467 45.2748 86.2359 45.7641C86.7252 46.2533 87 46.9168 87 47.6087ZM49.6087 83.2609H55.6957V46.7391H49.6087C49.3781 46.7391 49.1569 46.8307 48.9938 46.9938C48.8307 47.1569 48.7391 47.3781 48.7391 47.6087V82.3913C48.7391 82.6219 48.8307 82.8431 48.9938 83.0062C49.1569 83.1693 49.3781 83.2609 49.6087 83.2609ZM85.2609 47.6087C85.2609 47.3781 85.1693 47.1569 85.0062 46.9938C84.8431 46.8307 84.6219 46.7391 84.3913 46.7391H57.4348V83.2609H84.3913C84.6219 83.2609 84.8431 83.1693 85.0062 83.0062C85.1693 82.8431 85.2609 82.6219 85.2609 82.3913V47.6087Z" fill="white" fill-opacity="0.9"/>
</svg>
