<svg width="135" height="135" viewBox="0 0 135 135" fill="none" xmlns="http://www.w3.org/2000/svg">
<rect width="135" height="135" rx="20" fill="#01A560"/>
<path d="M34.455 115V104.29H40.815V105.475H35.805V108.82H37.395C38.465 108.82 39.295 108.955 39.885 109.225C40.475 109.485 40.885 109.845 41.115 110.305C41.345 110.755 41.46 111.275 41.46 111.865C41.46 112.515 41.33 113.075 41.07 113.545C40.82 114.015 40.41 114.375 39.84 114.625C39.27 114.875 38.52 115 37.59 115H34.455ZM37.455 113.845C38.415 113.845 39.09 113.685 39.48 113.365C39.87 113.035 40.065 112.535 40.065 111.865C40.065 111.405 39.97 111.04 39.78 110.77C39.6 110.49 39.3 110.29 38.88 110.17C38.47 110.05 37.92 109.99 37.23 109.99H35.805V113.845H37.455ZM50.4935 110.965C50.4935 111.635 50.4035 112.23 50.2235 112.75C50.0535 113.26 49.8035 113.695 49.4735 114.055C49.1535 114.415 48.7585 114.69 48.2885 114.88C47.8285 115.06 47.3135 115.15 46.7435 115.15C46.2135 115.15 45.7235 115.06 45.2735 114.88C44.8235 114.69 44.4335 114.415 44.1035 114.055C43.7735 113.695 43.5135 113.26 43.3235 112.75C43.1435 112.23 43.0535 111.635 43.0535 110.965C43.0535 110.075 43.2035 109.325 43.5035 108.715C43.8035 108.095 44.2335 107.625 44.7935 107.305C45.3535 106.975 46.0185 106.81 46.7885 106.81C47.5185 106.81 48.1585 106.975 48.7085 107.305C49.2685 107.625 49.7035 108.095 50.0135 108.715C50.3335 109.325 50.4935 110.075 50.4935 110.965ZM44.4185 110.965C44.4185 111.595 44.4985 112.145 44.6585 112.615C44.8285 113.075 45.0885 113.43 45.4385 113.68C45.7885 113.93 46.2335 114.055 46.7735 114.055C47.3135 114.055 47.7585 113.93 48.1085 113.68C48.4585 113.43 48.7135 113.075 48.8735 112.615C49.0435 112.145 49.1285 111.595 49.1285 110.965C49.1285 110.325 49.0435 109.78 48.8735 109.33C48.7035 108.88 48.4435 108.535 48.0935 108.295C47.7535 108.045 47.3085 107.92 46.7585 107.92C45.9385 107.92 45.3435 108.19 44.9735 108.73C44.6035 109.27 44.4185 110.015 44.4185 110.965ZM58.5555 106.96V113.89H59.7255V117.79H58.4505V115H52.8555V117.79H51.5955V113.89H52.2405C52.7005 113.25 53.0805 112.555 53.3805 111.805C53.6905 111.045 53.9205 110.255 54.0705 109.435C54.2305 108.605 54.3155 107.78 54.3255 106.96H58.5555ZM55.4955 107.995C55.4555 108.675 55.3505 109.38 55.1805 110.11C55.0105 110.83 54.7905 111.52 54.5205 112.18C54.2605 112.84 53.9555 113.41 53.6055 113.89H57.2805V107.995H55.4955ZM68.2914 110.965C68.2914 111.635 68.2014 112.23 68.0214 112.75C67.8514 113.26 67.6014 113.695 67.2714 114.055C66.9514 114.415 66.5564 114.69 66.0864 114.88C65.6264 115.06 65.1114 115.15 64.5414 115.15C64.0114 115.15 63.5214 115.06 63.0714 114.88C62.6214 114.69 62.2314 114.415 61.9014 114.055C61.5714 113.695 61.3114 113.26 61.1214 112.75C60.9414 112.23 60.8514 111.635 60.8514 110.965C60.8514 110.075 61.0014 109.325 61.3014 108.715C61.6014 108.095 62.0314 107.625 62.5914 107.305C63.1514 106.975 63.8164 106.81 64.5864 106.81C65.3164 106.81 65.9564 106.975 66.5064 107.305C67.0664 107.625 67.5014 108.095 67.8114 108.715C68.1314 109.325 68.2914 110.075 68.2914 110.965ZM62.2164 110.965C62.2164 111.595 62.2964 112.145 62.4564 112.615C62.6264 113.075 62.8864 113.43 63.2364 113.68C63.5864 113.93 64.0314 114.055 64.5714 114.055C65.1114 114.055 65.5564 113.93 65.9064 113.68C66.2564 113.43 66.5114 113.075 66.6714 112.615C66.8414 112.145 66.9264 111.595 66.9264 110.965C66.9264 110.325 66.8414 109.78 66.6714 109.33C66.5014 108.88 66.2414 108.535 65.8914 108.295C65.5514 108.045 65.1064 107.92 64.5564 107.92C63.7364 107.92 63.1414 108.19 62.7714 108.73C62.4014 109.27 62.2164 110.015 62.2164 110.965ZM82.9049 106.96V115H81.7199V109.87C81.7199 109.66 81.7249 109.44 81.7349 109.21C81.7549 108.98 81.7749 108.755 81.7949 108.535H81.7499L79.1249 115H78.0149L75.4649 108.535H75.4199C75.4399 108.755 75.4499 108.98 75.4499 109.21C75.4599 109.44 75.4649 109.675 75.4649 109.915V115H74.2799V106.96H76.0349L78.5699 113.425L81.1499 106.96H82.9049ZM88.5163 106.825C89.4963 106.825 90.2213 107.04 90.6913 107.47C91.1613 107.9 91.3963 108.585 91.3963 109.525V115H90.4363L90.1813 113.86H90.1213C89.8913 114.15 89.6513 114.395 89.4013 114.595C89.1613 114.785 88.8813 114.925 88.5613 115.015C88.2513 115.105 87.8713 115.15 87.4213 115.15C86.9413 115.15 86.5063 115.065 86.1163 114.895C85.7363 114.725 85.4363 114.465 85.2163 114.115C84.9963 113.755 84.8863 113.305 84.8863 112.765C84.8863 111.965 85.2013 111.35 85.8313 110.92C86.4613 110.48 87.4313 110.24 88.7413 110.2L90.1063 110.155V109.675C90.1063 109.005 89.9613 108.54 89.6713 108.28C89.3813 108.02 88.9713 107.89 88.4413 107.89C88.0213 107.89 87.6213 107.955 87.2413 108.085C86.8613 108.205 86.5063 108.345 86.1763 108.505L85.7713 107.515C86.1213 107.325 86.5363 107.165 87.0163 107.035C87.4963 106.895 87.9963 106.825 88.5163 106.825ZM88.9063 111.115C87.9063 111.155 87.2113 111.315 86.8213 111.595C86.4413 111.875 86.2513 112.27 86.2513 112.78C86.2513 113.23 86.3863 113.56 86.6563 113.77C86.9363 113.98 87.2913 114.085 87.7213 114.085C88.4013 114.085 88.9663 113.9 89.4163 113.53C89.8663 113.15 90.0913 112.57 90.0913 111.79V111.07L88.9063 111.115ZM99.9995 115H98.6645V108.055H96.2945C96.1945 109.325 96.0695 110.41 95.9195 111.31C95.7695 112.2 95.5795 112.925 95.3495 113.485C95.1195 114.045 94.8445 114.455 94.5245 114.715C94.2045 114.975 93.8295 115.105 93.3995 115.105C93.2695 115.105 93.1395 115.095 93.0095 115.075C92.8895 115.065 92.7895 115.04 92.7095 115V114.01C92.7695 114.03 92.8345 114.045 92.9045 114.055C92.9745 114.065 93.0445 114.07 93.1145 114.07C93.3345 114.07 93.5345 113.98 93.7145 113.8C93.8945 113.62 94.0545 113.345 94.1945 112.975C94.3445 112.605 94.4795 112.14 94.5995 111.58C94.7195 111.01 94.8245 110.34 94.9145 109.57C95.0045 108.8 95.0845 107.93 95.1545 106.96H99.9995V115Z" fill="white"/>
<path d="M72.8005 72.1571H69.8105C69.8105 76.5332 73.826 80.079 78.7803 80.079C81.3934 80.079 83.7465 79.0919 85.3865 77.5155L83.8737 76.2938C82.905 76.9513 80.3365 78.2075 78.7803 78.2075C74.9442 78.2075 71.6114 74.3035 71.6114 72.1963L72.8005 72.1571Z" fill="white" fill-opacity="0.9"/>
<path fill-rule="evenodd" clip-rule="evenodd" d="M59.8177 46.6097C60.767 45.7224 61.5474 44.5247 61.8165 43.3807C61.9689 42.7311 62.0407 41.7029 61.3635 40.8727C60.6713 40.0218 59.6473 39.9284 58.8415 40.0361C58.3236 40.105 57.8026 40.1452 57.2808 40.1565C56.8173 40.1724 56.2642 40.193 55.6543 40.4021C55.0189 40.6207 54.4179 41.0042 53.6989 41.5666C53.2292 41.9319 52.8755 43.4857 52.4624 43.921C50.0271 42.0831 46.8026 40.2136 41.8828 40.4686C41.288 40.4749 40.72 40.7314 40.3037 41.1815C39.8874 41.6317 39.6568 42.2387 39.6627 42.869C39.6687 43.4993 39.9107 44.1013 40.3354 44.5425C40.7601 44.9837 41.3329 45.2281 41.9276 45.2218H44.0773C44.2059 45.3153 44.7563 45.4012 44.8714 45.4884L41.4208 50.616C40.7591 50.674 39.731 50.7693 39.1564 51.122C38.2401 51.6843 37.9213 52.4075 37.5444 52.9868C37.1675 53.5662 37.2176 53.3542 37.111 54.0488C37.0044 54.7434 36.9267 55.3717 37.1109 56.0478L37.5444 57.6322C37.8142 58.6216 38.3799 59.4913 39.1564 60.1105C39.9329 60.7297 40.8781 61.0649 41.8499 61.0656H46.5171C46.8424 61.0654 47.1589 61.1778 47.4186 61.3856L50.2772 62.8654C50.5313 63.0682 51.2591 63.5721 51.5342 63.7115C53.2638 68.6706 54.7094 73.4063 56.8173 76.2201L57.2957 82.32C56.8008 82.7237 56.4375 83.2814 56.257 83.9151C56.0764 84.5487 56.0876 85.2263 56.2889 85.8528C56.4903 86.4794 56.8717 87.0234 57.3796 87.4085C57.8876 87.7936 58.4965 88.0004 59.1211 88H63.6059C64.0024 88 64.3827 87.8331 64.663 87.5359C64.9434 87.2388 65.1009 86.8358 65.1009 86.4156L64.2913 72.6592H76.1158C78.1504 74.665 81.5588 76.5198 84.8746 77.3421L84.2907 82.6104C83.7955 83.0136 83.7068 83.1958 83.5025 83.9151C83.5025 84.6461 83.3017 85.4959 83.5025 86.1226C83.7034 86.7493 83.7816 87.0214 84.2893 87.4069C84.7969 87.7925 85.4057 87.9999 86.0302 88H90.5151C90.9116 88 91.2918 87.8331 91.5722 87.5359C91.8525 87.2388 92.01 86.8358 92.01 86.4156V59.4812C92.01 54.8548 90.8589 51.6306 88.9648 49.563C87.0707 47.4969 84.6369 46.8062 82.4946 46.8062H62.8584C61.7372 46.8062 59.215 47.955 58.3016 47.8298L59.8177 46.6097ZM46.5171 43.4156C46.5769 43.4695 43.8845 42.8151 43.9399 42.869C44.2202 43.1402 48 44.7278 48.0297 45.1289C48.0594 45.5299 47.9441 45.9279 47.7071 46.2421L42.9472 52.5479C42.8072 52.7337 42.6296 52.8837 42.4274 52.9868C42.2253 53.09 42.0039 53.1436 41.7796 53.1437H41.4208C41.1889 53.1436 40.9602 53.2006 40.7527 53.3103C40.5453 53.4201 40.676 53.3103 40.4385 53.4634C40.2992 53.6598 39.8965 53.8071 39.8546 54.0488C39.5676 54.2409 39.5983 54.8911 39.6627 55.1272V57.0117C39.7529 57.3417 40.0914 57.9761 40.3505 58.1824C40.6096 58.3888 41.5258 58.8571 41.8499 58.8569H46.1897C47.1652 58.8569 48.3309 59.3155 49.1093 59.9385L52.1262 61.1828C52.3026 61.3222 52.482 61.411 52.6599 61.4585C52.8954 61.5228 53.1127 61.647 53.2927 61.8204C53.4727 61.9937 53.6101 62.2111 53.6929 62.4535C55.5586 67.9132 56.7003 72.8166 59.4126 74.5756C59.6129 74.8275 59.3873 75.1169 59.4126 75.4452L59.6199 82.7678C59.6514 83.1641 59.6427 83.601 59.4126 83.9151C59.1824 84.2291 58.8221 85.4714 58.4521 85.5372H62.6856L62.111 72.1562C62.111 71.736 62.2685 71.333 62.5488 71.0359C62.8292 70.7388 63.2094 70.5718 63.6059 70.5718H76.7764C77.1663 70.5719 77.5408 70.7333 77.8199 71.0218C79.883 73.1496 82.0985 74.7356 85.5309 75.3472C85.8583 75.4058 86.1579 75.5782 86.3826 75.8372C86.6072 76.0963 86.7441 76.4272 86.7717 76.7778L86.0302 82.6104C86.0613 83.0064 85.8874 83.1983 85.8874 83.9151C85.4585 84.3665 85.9006 85.7846 85.5309 85.8503H90.0717V78.6341V72.1562V59.4812C90.0717 55.3935 88.926 52.4211 87.736 51.122C86.5461 49.8228 84.3856 49.3659 82.8263 49.3659H72.8997H62.8555C59.4321 49.3659 56.9235 49.3681 54.8246 48.6092C54.5152 48.4974 54.2489 48.353 54.0666 48.0655C53.8842 47.7781 54.0476 47.5903 54.0666 47.2445C54.4525 46.8062 54.0666 47.2445 54.6497 46.5577C55.4719 45.8745 55.3347 45.9476 55.6543 45.8745C56.6753 45.6416 56.9803 44.9255 57.5708 44.4644C57.9926 44.1304 59.5347 43.0321 59.8177 42.5615C59.3303 42.6091 57.956 42.5615 57.4527 43.3205L57.8931 42.9268C57.355 42.9474 56.7531 43.3554 56.5766 43.4156C56.3973 43.479 56.0998 43.6279 55.4719 44.1175C54.7065 44.7148 54.1324 45.3501 53.7975 45.8745C53.6756 46.0641 53.5163 46.2234 53.3307 46.3414C53.145 46.4593 52.9374 46.5331 52.7221 46.5577C52.5069 46.5822 52.2892 46.557 52.0841 46.4836C51.879 46.4102 51.6913 46.2905 51.5342 46.1328C50.5012 45.0982 49.2738 44.3298 47.3782 43.921L46.5171 43.4156Z" fill="white" fill-opacity="0.9"/>
<path d="M99.9996 66.3414C99.9996 67.9585 99.2148 69.2682 98.2479 69.2682C97.2809 69.2682 96.4961 67.9585 96.4961 66.3414C96.4961 64.7243 97.2809 63.4146 98.2479 63.4146C99.2148 63.4146 99.9996 64.7243 99.9996 66.3414Z" fill="white" fill-opacity="0.9"/>
<path fill-rule="evenodd" clip-rule="evenodd" d="M82.124 49.366V47.0246C82.2062 47.0246 89.8036 47.0245 89.9172 47.0277C92.9325 47.0816 95.3828 47.7217 97.0526 49.4217C98.7434 51.1439 99.316 53.6251 99.316 56.5308L97.0526 56.1914C97.0526 53.6437 96.3869 51.9698 95.5542 51.1221C94.6991 50.2507 92.662 49.4708 89.9172 49.4217H89.6105L82.124 49.366Z" fill="white" fill-opacity="0.9"/>
<path d="M97.0498 56.0144L99.2922 55.9397V67.105H97.7973L97.0498 56.0144Z" fill="white" fill-opacity="0.9"/>
<path fill-rule="evenodd" clip-rule="evenodd" d="M68.6951 75.7083L71.6147 74.5376L72.5517 76.3064L69.94 77.4408L68.6951 75.7083ZM72.619 79.8538L74.2021 76.7326L76.2577 78.0498L74.5343 80.9766L72.6205 79.8538H72.619ZM80.3735 81.562L79.7896 80.3912L79.2057 78.6351L81.7337 77.7624L82.3676 81.2417L80.3735 81.562ZM76.2816 71.0225C76.1294 71.1643 76.0072 71.3388 75.9232 71.5343C75.8392 71.7299 75.7953 71.942 75.7942 72.1569H78.7842C78.7842 72.4167 78.7214 72.9665 78.2609 73.3974C78.0992 73.5478 77.9099 73.6611 77.7048 73.7301C77.4997 73.7991 77.6679 73.3908 77.4539 73.3668C77.7048 74.1115 76.25 72.8705 76.0047 72.7093L77.0694 73.4973C76.748 73.28 76.2088 72.9036 75.9232 72.6358C75.1182 71.8889 74.1156 70.664 73.3664 69.8545C71.6771 68.053 70.6478 66.4026 69.8629 65.1716L71.0308 64.001C71.6392 64.9532 73.4199 67.4567 75.1182 69.2693C75.81 70.0174 76.3266 69.5789 77.0694 70.2699C77.343 70.5155 77.6435 71.1595 77.7048 71.2022C77.576 71.1369 77.2116 70.2843 77.0694 70.2699C76.8732 70.2497 76.9771 70.6497 76.7896 70.7143C76.6021 70.7789 76.4291 70.8838 76.2816 71.0225Z" fill="white" fill-opacity="0.9"/>
</svg>
