<svg width="135" height="135" viewBox="0 0 135 135" fill="none" xmlns="http://www.w3.org/2000/svg">
<rect width="135" height="135" rx="20" fill="#01A560"/>
<path d="M94 57.6393L93.7057 56.6284C93.6247 56.3543 92.0911 51.2876 87.6694 49.021C91.6969 46.0201 92.5771 42.2552 92.6212 42.0568L92.8633 40.9577L91.8886 40.3302C91.6267 40.1618 89.2048 38.6785 85.1053 38.6785C81.7951 38.6785 78.3661 39.6452 74.9119 41.5518C71.5846 43.3885 70.7773 46.3043 70.0654 48.876C69.16 52.1526 68.4238 54.7559 63.04 55.9443C62.5997 55.8937 62.1607 55.834 61.7233 55.7651L63.6349 54.0984C63.6349 54.0984 59.4445 55.3484 57.8641 54.1009C57.7741 54.0301 57.6742 53.8759 57.6814 53.5451C57.6958 52.9401 58.5742 47.4985 58.576 45.9218C62.3245 45.1085 64.1731 41.5293 62.5783 40.6293C61.4524 39.9927 60.0367 41.6452 57.4159 42.1785C57.4402 41.8593 57.4474 41.5202 57.4105 41.1435C57.2062 39.0385 60.412 38.2243 60.0232 37.1393C59.5183 35.7318 55.3936 36.6002 53.4109 39.6985C53.171 40.0814 52.9864 40.4919 52.8619 40.9193C52.7701 40.5878 52.6488 40.2639 52.4992 39.951C51.5767 38.026 54.4576 36.286 53.5765 35.3493C52.411 34.111 49.0198 36.2952 48.2224 39.8435C48.0651 40.5876 48.0866 41.3546 48.2854 42.0902C48.2062 42.026 48.1405 41.9627 48.0541 41.8977C46.5889 40.816 48.0784 38.5243 46.9795 38.101C45.4135 37.4952 43.9969 40.476 44.8501 43.3902C45.0301 44.0035 45.3955 44.6176 45.8635 45.0868C42.9097 45.396 40.7299 48.0285 40.6336 48.1485L40 48.9268L41.0269 48.8176C41.0386 48.816 41.278 48.7926 41.647 48.7926C42.1627 48.7926 42.8701 48.8493 43.5658 49.0426C42.5929 49.996 41.6803 51.156 41.1088 52.5151C39.7903 55.6468 42.7828 54.0243 43.3921 54.0926C43.3921 54.0926 43.681 54.4776 44.0446 54.7343C44.041 54.9218 44.0257 55.0976 44.0257 55.2884C44.0257 57.7326 44.572 64.7992 44.5954 65.0984L44.7592 67.2017L46.1164 65.5926C48.5239 72.0617 54.1165 77.3809 60.6784 78.735C61.4974 79.6675 62.7664 80.65 64.2055 81.0658C62.0005 83.97 57.9199 84.2575 57.9199 85H70.4173C70.4173 84.2325 68.1961 84.4158 66.6697 81.085C68.2303 80.5975 69.6424 79.1667 70.5739 77.7409C74.6806 76.0234 78.1474 72.79 80.4073 68.8817C82.7806 69.6176 84.8263 69.7217 84.9919 69.7284L86.2978 69.7809L86.7181 68.5984C86.7865 68.4067 88.1383 64.5326 87.5866 60.8276C90.8824 60.2168 93.0658 58.4209 93.1747 58.3301L94 57.6393ZM44.2741 48.3926C43.4821 48.101 42.6514 47.9901 41.9935 47.9651C42.8557 47.1585 44.4676 45.9418 46.3207 45.896C46.0327 46.3635 45.7672 46.8676 45.5251 47.4085C45.1237 47.6951 44.7007 48.0243 44.2741 48.3926ZM45.7708 55.2876C45.7708 50.7393 46.9723 47.5326 48.6904 45.5243C48.7516 45.4793 48.8155 45.4376 48.8767 45.3843C49.3699 44.9551 50.5921 44.2793 51.3355 44.0893C51.8899 43.9485 53.2813 44.0051 54.1543 44.5785C54.9571 45.1093 55.5466 46.0393 56.7184 46.0851C56.7553 46.0868 56.7895 46.0818 56.8264 46.0826C56.7931 47.5951 55.9534 52.7951 55.9372 53.5076C55.9201 54.2084 56.1559 54.8159 56.6176 55.2659C56.9956 55.6343 57.5104 55.8901 58.1566 56.0309L56.2135 57.2659L57.8074 59.0551L53.6638 58.6443L54.2794 62.0584L50.5156 59.4718L49.9972 63.4126L47.8228 60.9134L46.1812 62.8601C46.012 60.5134 45.7708 56.8534 45.7708 55.2876ZM69.6352 76.3109L69.3679 76.4184L69.2203 76.6567C68.1475 78.3942 66.6526 79.6067 65.587 79.6067C64.3981 79.6067 62.8636 78.7284 61.8547 77.4725L61.6531 77.2217L61.3291 77.1609C54.8869 75.9625 49.4167 70.5367 47.4142 64.0534L47.8435 63.5459L51.2266 67.4334L51.8809 62.4626L56.7229 65.7926L55.7752 60.5301L61.6396 61.1126C59.314 62.7634 58.2052 65.2592 58.7173 67.8526C59.3158 70.8767 61.9861 73.1242 65.5195 73.5792C66.3367 73.6842 67.1458 73.7367 67.9261 73.7367C74.0209 73.7367 76.9054 70.5626 77.0242 70.4267L77.3635 70.0442L77.1682 69.5784C76.6921 68.4417 75.7264 67.5817 74.9326 67.0276C76.7254 65.6701 77.7685 63.8326 77.8207 63.7401L78.2671 62.9434L77.3995 62.5826C76.5319 62.2217 74.4106 61.9642 72.8491 61.8142C73.1799 61.3947 73.4866 60.9594 73.768 60.5101L74.3557 59.5526L73.2271 59.2826C73.1641 59.2668 71.6584 58.9126 69.5542 58.9126C66.9406 58.9126 64.6177 59.4418 62.6512 60.4859C62.3578 60.6426 62.0905 60.8184 61.825 60.9976L58.8136 57.6143L59.6065 57.1109C61.4434 57.4184 63.0292 57.6843 64.0291 57.6843C67.7524 57.6843 71.248 56.6759 74.0578 55.8651C76.0576 55.2893 77.7847 54.7901 79.0528 54.7901C79.9591 54.7901 81.4756 54.7901 81.4756 58.7993C81.4747 66.2051 76.495 73.5692 69.6352 76.3109ZM71.0221 63.3367C72.3325 63.4284 74.3737 63.6276 75.6715 63.8584C75.0937 64.6242 74.1352 65.6926 72.9049 66.3184L71.3857 67.0934L72.94 67.8059C72.958 67.8142 74.5132 68.5384 75.2917 69.7242C74.4034 70.4725 72.0265 72.07 67.9243 72.07C67.2214 72.07 66.4906 72.0217 65.7517 71.9267C62.3821 71.4925 60.7945 69.3776 60.4309 67.5417C59.9935 65.3259 61.168 63.1801 63.499 61.9418C65.2036 61.0376 67.2403 60.5784 69.5542 60.5784C70.3237 60.5784 71.0059 60.6318 71.5441 60.6951C71.2462 61.0851 70.8745 61.5284 70.4686 61.9167L69.1249 63.2034L71.0221 63.3367ZM85.4158 59.3618C86.8585 63.0176 85.0639 68.0626 85.0639 68.0626C85.0639 68.0626 83.2882 67.9876 81.1975 67.3801C82.489 64.6884 83.2198 61.7468 83.2198 58.7993C83.2198 56.3634 82.7878 53.1234 79.051 53.1234C77.5246 53.1234 75.6841 53.6551 73.552 54.2693C71.8627 54.7568 70.0384 55.2784 68.1088 55.6243C72.9697 52.0868 70.5586 45.8793 75.784 42.9935C79.4776 40.9552 82.6393 40.3443 85.1035 40.3443C88.7881 40.3443 90.9112 41.7118 90.9112 41.7118C90.9112 41.7118 89.7412 47.0068 83.1325 49.6085C89.8591 49.6626 92.0218 57.0759 92.0218 57.0759C92.0218 57.0759 89.2903 59.3618 85.4158 59.3618Z" fill="white" fill-opacity="0.9"/>
<path d="M54.845 115H53.495V105.475H50.15V104.29H58.175V105.475H54.845V115ZM65.5453 110.965C65.5453 111.635 65.4553 112.23 65.2753 112.75C65.1053 113.26 64.8553 113.695 64.5253 114.055C64.2053 114.415 63.8103 114.69 63.3403 114.88C62.8803 115.06 62.3653 115.15 61.7953 115.15C61.2653 115.15 60.7753 115.06 60.3253 114.88C59.8753 114.69 59.4853 114.415 59.1553 114.055C58.8253 113.695 58.5653 113.26 58.3753 112.75C58.1953 112.23 58.1053 111.635 58.1053 110.965C58.1053 110.075 58.2553 109.325 58.5553 108.715C58.8553 108.095 59.2853 107.625 59.8453 107.305C60.4053 106.975 61.0703 106.81 61.8403 106.81C62.5703 106.81 63.2103 106.975 63.7603 107.305C64.3203 107.625 64.7553 108.095 65.0653 108.715C65.3853 109.325 65.5453 110.075 65.5453 110.965ZM59.4703 110.965C59.4703 111.595 59.5503 112.145 59.7103 112.615C59.8803 113.075 60.1403 113.43 60.4903 113.68C60.8403 113.93 61.2853 114.055 61.8253 114.055C62.3653 114.055 62.8103 113.93 63.1603 113.68C63.5103 113.43 63.7653 113.075 63.9253 112.615C64.0953 112.145 64.1803 111.595 64.1803 110.965C64.1803 110.325 64.0953 109.78 63.9253 109.33C63.7553 108.88 63.4953 108.535 63.1453 108.295C62.8053 108.045 62.3603 107.92 61.8103 107.92C60.9903 107.92 60.3953 108.19 60.0253 108.73C59.6553 109.27 59.4703 110.015 59.4703 110.965ZM74.6273 110.965C74.6273 111.635 74.5373 112.23 74.3573 112.75C74.1873 113.26 73.9373 113.695 73.6073 114.055C73.2873 114.415 72.8923 114.69 72.4223 114.88C71.9623 115.06 71.4473 115.15 70.8773 115.15C70.3473 115.15 69.8573 115.06 69.4073 114.88C68.9573 114.69 68.5673 114.415 68.2373 114.055C67.9073 113.695 67.6473 113.26 67.4573 112.75C67.2773 112.23 67.1873 111.635 67.1873 110.965C67.1873 110.075 67.3373 109.325 67.6373 108.715C67.9373 108.095 68.3673 107.625 68.9273 107.305C69.4873 106.975 70.1523 106.81 70.9223 106.81C71.6523 106.81 72.2923 106.975 72.8423 107.305C73.4023 107.625 73.8373 108.095 74.1473 108.715C74.4673 109.325 74.6273 110.075 74.6273 110.965ZM68.5523 110.965C68.5523 111.595 68.6323 112.145 68.7923 112.615C68.9623 113.075 69.2223 113.43 69.5723 113.68C69.9223 113.93 70.3673 114.055 70.9073 114.055C71.4473 114.055 71.8923 113.93 72.2423 113.68C72.5923 113.43 72.8473 113.075 73.0073 112.615C73.1773 112.145 73.2623 111.595 73.2623 110.965C73.2623 110.325 73.1773 109.78 73.0073 109.33C72.8373 108.88 72.5773 108.535 72.2273 108.295C71.8873 108.045 71.4423 107.92 70.8923 107.92C70.0723 107.92 69.4773 108.19 69.1073 108.73C68.7373 109.27 68.5523 110.015 68.5523 110.965ZM81.4743 106.96H82.9143L79.4793 110.83L83.1993 115H81.6693L78.0393 110.92V115H76.7193V106.96H78.0393V110.86L81.4743 106.96Z" fill="white"/>
</svg>
