<svg width="135" height="135" viewBox="0 0 135 135" fill="none" xmlns="http://www.w3.org/2000/svg">
<rect width="135" height="135" rx="20" fill="#01A560"/>
<path d="M30.27 115H28.65L23.805 109.57V115H22.455V104.29H23.805V109.48L28.53 104.29H30.06L25.41 109.495L30.27 115ZM38.5375 110.965C38.5375 111.635 38.4475 112.23 38.2675 112.75C38.0975 113.26 37.8475 113.695 37.5175 114.055C37.1975 114.415 36.8025 114.69 36.3325 114.88C35.8725 115.06 35.3575 115.15 34.7875 115.15C34.2575 115.15 33.7675 115.06 33.3175 114.88C32.8675 114.69 32.4775 114.415 32.1475 114.055C31.8175 113.695 31.5575 113.26 31.3675 112.75C31.1875 112.23 31.0975 111.635 31.0975 110.965C31.0975 110.075 31.2475 109.325 31.5475 108.715C31.8475 108.095 32.2775 107.625 32.8375 107.305C33.3975 106.975 34.0625 106.81 34.8325 106.81C35.5625 106.81 36.2025 106.975 36.7525 107.305C37.3125 107.625 37.7475 108.095 38.0575 108.715C38.3775 109.325 38.5375 110.075 38.5375 110.965ZM32.4625 110.965C32.4625 111.595 32.5425 112.145 32.7025 112.615C32.8725 113.075 33.1325 113.43 33.4825 113.68C33.8325 113.93 34.2775 114.055 34.8175 114.055C35.3575 114.055 35.8025 113.93 36.1525 113.68C36.5025 113.43 36.7575 113.075 36.9175 112.615C37.0875 112.145 37.1725 111.595 37.1725 110.965C37.1725 110.325 37.0875 109.78 36.9175 109.33C36.7475 108.88 36.4875 108.535 36.1375 108.295C35.7975 108.045 35.3525 107.92 34.8025 107.92C33.9825 107.92 33.3875 108.19 33.0175 108.73C32.6475 109.27 32.4625 110.015 32.4625 110.965ZM47.1395 103.63C47.0995 104.13 46.9745 104.55 46.7645 104.89C46.5645 105.23 46.2645 105.485 45.8645 105.655C45.4645 105.825 44.9445 105.91 44.3045 105.91C43.6545 105.91 43.1295 105.825 42.7295 105.655C42.3395 105.485 42.0545 105.235 41.8745 104.905C41.6945 104.565 41.5845 104.14 41.5445 103.63H42.7745C42.8245 104.17 42.9645 104.535 43.1945 104.725C43.4345 104.905 43.8145 104.995 44.3345 104.995C44.7945 104.995 45.1545 104.9 45.4145 104.71C45.6845 104.51 45.8445 104.15 45.8945 103.63H47.1395ZM41.8745 111.865C41.8745 111.955 41.8695 112.085 41.8595 112.255C41.8595 112.415 41.8545 112.59 41.8445 112.78C41.8345 112.96 41.8245 113.135 41.8145 113.305C41.8045 113.465 41.7945 113.595 41.7845 113.695L46.0895 106.96H47.7095V115H46.4795V110.26C46.4795 110.1 46.4795 109.89 46.4795 109.63C46.4895 109.37 46.4995 109.115 46.5095 108.865C46.5195 108.605 46.5295 108.41 46.5395 108.28L42.2645 115H40.6295V106.96H41.8745V111.865ZM55.4546 115.15C54.9946 115.15 54.5946 115.11 54.2546 115.03C53.9246 114.96 53.6146 114.855 53.3246 114.715V113.575C53.6246 113.695 53.9496 113.8 54.2996 113.89C54.6496 113.98 55.0446 114.025 55.4846 114.025C56.0046 114.025 56.4546 113.935 56.8346 113.755C57.2146 113.565 57.5146 113.275 57.7346 112.885C57.9546 112.495 58.0796 112 58.1096 111.4H54.1496V110.32H58.0946C58.0246 109.5 57.7896 108.9 57.3896 108.52C56.9996 108.14 56.4246 107.95 55.6646 107.95C55.3746 107.95 55.0546 107.99 54.7046 108.07C54.3646 108.15 54.0596 108.24 53.7896 108.34L53.4146 107.275C53.7046 107.145 54.0496 107.035 54.4496 106.945C54.8496 106.855 55.2496 106.81 55.6496 106.81C56.3996 106.81 57.0596 106.95 57.6296 107.23C58.2096 107.51 58.6596 107.955 58.9796 108.565C59.3096 109.175 59.4746 109.98 59.4746 110.98C59.4746 111.93 59.2996 112.715 58.9496 113.335C58.6096 113.955 58.1346 114.415 57.5246 114.715C56.9246 115.005 56.2346 115.15 55.4546 115.15ZM62.5853 109.885C62.5853 110.355 62.7153 110.705 62.9753 110.935C63.2453 111.155 63.6303 111.265 64.1303 111.265C64.6303 111.265 65.0853 111.19 65.4953 111.04C65.9053 110.88 66.3253 110.67 66.7553 110.41V106.96H68.0753V115H66.7553V111.415C66.3053 111.705 65.8603 111.935 65.4203 112.105C64.9903 112.265 64.4703 112.345 63.8603 112.345C63.0403 112.345 62.4003 112.13 61.9403 111.7C61.4903 111.27 61.2653 110.695 61.2653 109.975V106.96H62.5853V109.885ZM75.3845 106.96H76.8245L73.3895 110.83L77.1095 115H75.5795L71.9495 110.92V115H70.6295V106.96H71.9495V110.86L75.3845 106.96ZM79.8139 111.865C79.8139 111.955 79.8089 112.085 79.7989 112.255C79.7989 112.415 79.7939 112.59 79.7839 112.78C79.7739 112.96 79.7639 113.135 79.7539 113.305C79.7439 113.465 79.7339 113.595 79.7239 113.695L84.0289 106.96H85.6489V115H84.4189V110.26C84.4189 110.1 84.4189 109.89 84.4189 109.63C84.4289 109.37 84.4389 109.115 84.4489 108.865C84.4589 108.605 84.4689 108.41 84.4789 108.28L80.2039 115H78.5689V106.96H79.8139V111.865ZM94.3276 115H92.9926V108.055H90.6226C90.5226 109.325 90.3976 110.41 90.2476 111.31C90.0976 112.2 89.9076 112.925 89.6776 113.485C89.4476 114.045 89.1726 114.455 88.8526 114.715C88.5326 114.975 88.1576 115.105 87.7276 115.105C87.5976 115.105 87.4676 115.095 87.3376 115.075C87.2176 115.065 87.1176 115.04 87.0376 115V114.01C87.0976 114.03 87.1626 114.045 87.2326 114.055C87.3026 114.065 87.3726 114.07 87.4426 114.07C87.6626 114.07 87.8626 113.98 88.0426 113.8C88.2226 113.62 88.3826 113.345 88.5226 112.975C88.6726 112.605 88.8076 112.14 88.9276 111.58C89.0476 111.01 89.1526 110.34 89.2426 109.57C89.3326 108.8 89.4126 107.93 89.4826 106.96H94.3276V115ZM99.9845 106.81C100.674 106.81 101.264 106.96 101.754 107.26C102.254 107.56 102.634 107.985 102.894 108.535C103.164 109.075 103.299 109.71 103.299 110.44V111.235H97.7945C97.8145 112.145 98.0445 112.84 98.4845 113.32C98.9345 113.79 99.5595 114.025 100.359 114.025C100.869 114.025 101.319 113.98 101.709 113.89C102.109 113.79 102.519 113.65 102.939 113.47V114.625C102.529 114.805 102.124 114.935 101.724 115.015C101.324 115.105 100.849 115.15 100.299 115.15C99.5395 115.15 98.8645 114.995 98.2745 114.685C97.6945 114.375 97.2395 113.915 96.9095 113.305C96.5895 112.685 96.4295 111.93 96.4295 111.04C96.4295 110.16 96.5745 109.405 96.8645 108.775C97.1645 108.145 97.5795 107.66 98.1095 107.32C98.6495 106.98 99.2745 106.81 99.9845 106.81ZM99.9695 107.89C99.3395 107.89 98.8395 108.095 98.4695 108.505C98.1095 108.905 97.8945 109.465 97.8245 110.185H101.919C101.919 109.725 101.849 109.325 101.709 108.985C101.569 108.645 101.354 108.38 101.064 108.19C100.784 107.99 100.419 107.89 99.9695 107.89ZM109.171 106.81C110.161 106.81 110.956 107.155 111.556 107.845C112.166 108.535 112.471 109.575 112.471 110.965C112.471 111.875 112.331 112.645 112.051 113.275C111.781 113.895 111.396 114.365 110.896 114.685C110.406 114.995 109.826 115.15 109.156 115.15C108.746 115.15 108.381 115.095 108.061 114.985C107.741 114.875 107.466 114.735 107.236 114.565C107.016 114.385 106.826 114.19 106.666 113.98H106.576C106.596 114.15 106.616 114.365 106.636 114.625C106.656 114.885 106.666 115.11 106.666 115.3V118.6H105.346V106.96H106.426L106.606 108.055H106.666C106.826 107.825 107.016 107.615 107.236 107.425C107.466 107.235 107.736 107.085 108.046 106.975C108.366 106.865 108.741 106.81 109.171 106.81ZM108.931 107.92C108.391 107.92 107.956 108.025 107.626 108.235C107.296 108.435 107.056 108.74 106.906 109.15C106.756 109.56 106.676 110.08 106.666 110.71V110.965C106.666 111.625 106.736 112.185 106.876 112.645C107.016 113.105 107.251 113.455 107.581 113.695C107.921 113.935 108.381 114.055 108.961 114.055C109.451 114.055 109.851 113.92 110.161 113.65C110.481 113.38 110.716 113.015 110.866 112.555C111.026 112.085 111.106 111.55 111.106 110.95C111.106 110.03 110.926 109.295 110.566 108.745C110.216 108.195 109.671 107.92 108.931 107.92Z" fill="white"/>
<path d="M96.4954 57.3567C96.4252 57.2266 96.347 57.1085 96.2727 56.9852C100.959 53.2428 94.6257 46.9241 94.6257 46.9241C94.6257 46.9241 92.8791 51.1 92.4948 54.0231C92.4267 54.0086 92.3586 53.9874 92.2894 53.9763C89.0087 53.4723 85.2318 53.2377 80.4036 53.2377C78.1791 53.2377 76.0442 53.2853 73.9793 53.3303C72.1961 53.3694 70.5115 53.4068 68.9987 53.4068C63.5636 53.4068 62.7228 52.8263 62.5947 52.6495C62.5977 50.4328 62.0731 48.3376 61.0717 46.5229C62.8051 44.4498 62.8255 41.5454 62.2602 40.307C61.7895 39.2743 60.9009 39.1621 60.54 39.1621C60.2889 39.1621 60.0469 39.2106 59.8172 39.3058C59.4786 39.4452 58.9337 39.6729 58.3003 39.9636C60.7616 38.3062 64.0495 38.1676 64.0495 38.1676C58.3501 36.4048 55.1527 38.4311 53.5464 40.6572C54.9199 36.715 60.2818 35.0091 60.2818 35.0091C52.8998 34.7949 50.2768 38.3903 49.559 41.457C48.2739 41.8395 47.0377 42.4864 45.9 43.3933C43.4763 45.3287 43.0147 46.8076 42.5257 48.3716C42.0133 50.012 41.3759 52.0537 37.9019 55.8097C36.7429 57.0643 36.9493 58.1633 37.177 58.7073C37.722 60.0154 39.4096 60.947 42.0519 61.4009C42.0957 61.4085 42.1475 61.4145 42.1943 61.4213C42.0448 64.7362 47.2451 66.244 47.2451 66.244C47.2451 66.244 45.5361 63.7196 46.7794 60.25L46.7937 60.2432C47.3173 60.0035 48.0157 59.9185 48.7569 59.8293C49.5641 59.7315 50.5503 59.6117 51.4693 59.2147C51.9614 62.7608 53.4091 68.1182 57.5947 72.448C57.7869 73.2631 58.3481 76.7863 56.1714 84.3876L55.7098 86H61.9176L62.2755 85.1483L65.299 77.9431L65.4169 77.6643L65.3824 77.3685C65.2594 76.2788 65.2777 75.0591 65.4078 74.38C66.6776 74.6749 68.2351 74.8194 70.1383 74.8194C75.5745 74.8194 82.2082 73.615 84.7753 73.1042C86.1 74.7489 88.297 76.1726 89.5953 76.9316C89.1723 78.2788 88.5684 80.9035 88.6518 84.7259L88.6803 86H94.887L95.069 84.884C95.4025 82.833 97.1013 75.5717 97.1186 75.4986L97.205 75.1305L97.0525 74.7795C95.9993 72.3502 96.0033 71.0574 96.0369 70.6775C98.8449 66.1157 98.2573 60.5985 96.4954 57.3567ZM95.069 75.1305C95.069 75.1305 94.5414 80.0128 93.9283 82.9724L90.403 82.8902C90.5535 78.5443 92.0196 76.0488 92.0196 76.0488C92.0196 76.0488 86.9638 73.4905 85.6187 71.0732C85.6187 71.0732 76.7843 72.9095 70.1383 72.9095C68.2168 72.9095 66.6039 73.2317 65.4078 72.6098C65.3213 72.5811 64.7803 72.3182 64.6873 72.3171C63.1817 72.3171 63.4913 77.3685 63.4913 77.3685L61.0991 82.8902L58.332 82.8994C60.3989 74.7659 59.5281 71.7042 59.5281 71.7042C52.8445 65.0098 53.4732 53.9763 53.4732 53.9763C52.6466 57.8684 48.2882 56.9174 45.9 58.0122C44.0466 58.8622 43.6013 60.1939 42.9781 60.1939C42.7635 60.1899 42.5498 60.1674 42.3407 60.1268C39.2907 59.6032 39.0287 57.209 40.5882 55.5244C47.4355 48.1186 42.7077 48.5721 47.2451 44.9512C48.0401 44.3171 48.7333 44.0337 49.5588 43.7073C49.4734 45.1514 49.8681 46.3716 50.1569 46.5229C51.4074 47.1782 53.89 45.8157 53.4732 44.296C53.3012 43.6816 53.7338 43.7163 53.7451 43.0854C54.5651 43.1923 55.4135 43.3679 56.1373 43.7073C57.7222 42.4638 58.831 41.5409 59.8172 41.133C59.8431 41.1212 60.5095 40.4608 60.539 40.4609C61.2608 40.4617 60.7057 44.5391 58.3003 46.5229C59.4349 48.2271 60.539 50.8068 60.539 53.2377C60.539 54.9572 64.2976 55.5244 68.9987 55.5244C72.2601 55.5244 76.2454 55.2555 80.4036 55.2555C84.2832 55.2555 87.6433 55.5752 91.3612 56.1463C95.1747 56.7311 97.6303 63.8964 93.8137 69.8293C93.8137 69.8293 93.5399 71.6125 95.069 75.1305Z" fill="white" fill-opacity="0.9"/>
</svg>
