<svg width="135" height="135" viewBox="0 0 135 135" fill="none" xmlns="http://www.w3.org/2000/svg">
<rect width="135" height="135" rx="20" fill="#01A560"/>
<path d="M67.0001 85H47.0003L47 81.5217H62.1726C63.3602 75.4348 58.0344 70.8734 54.3088 70.8734C55.2758 66.7391 49.7646 66.548 47.0003 65.65C48.2802 65.25 49.6202 65 51.0002 65C59.8402 65 67.0001 73.95 67.0001 85ZM87 65.65C85.72 65.25 84.38 65 83 65C77.1401 65 72.0401 68.95 69.2401 74.825C70.395 78.0223 70.9884 81.4919 70.9801 85H86.98L87 81.5217H73.207C71.8277 75.4348 75.0034 69.3478 78.7242 69.3478C80.5206 65.2108 84.2347 66.551 87 65.65ZM73.8966 61.775C70.5967 55.5293 78.7052 52.9751 82.46 50.05C73.8801 50.4 66.3102 61.1315 66.3102 71.9565L67.0001 70.05C68.9001 66.875 68.8567 59.0232 73.8966 61.775ZM64.2415 57.1739C63.4133 54.4545 62.6237 52.1353 61.0002 50.05C59.3767 47.9647 58.5524 46.1087 56.4002 45C59.2802 49.65 62.1726 54.3272 62.1726 60.6522C62.1726 61.1772 62.0457 62.3522 61.4829 63.2609C63.425 64.9609 63.4615 67.7283 64.2415 68.4783C64.6694 65.5737 63.3602 60.6522 64.2415 57.1739Z" fill="white" fill-opacity="0.9"/>
<path d="M54.845 115H53.495V105.475H50.15V104.29H58.175V105.475H54.845V115ZM65.5453 110.965C65.5453 111.635 65.4553 112.23 65.2753 112.75C65.1053 113.26 64.8553 113.695 64.5253 114.055C64.2053 114.415 63.8103 114.69 63.3403 114.88C62.8803 115.06 62.3653 115.15 61.7953 115.15C61.2653 115.15 60.7753 115.06 60.3253 114.88C59.8753 114.69 59.4853 114.415 59.1553 114.055C58.8253 113.695 58.5653 113.26 58.3753 112.75C58.1953 112.23 58.1053 111.635 58.1053 110.965C58.1053 110.075 58.2553 109.325 58.5553 108.715C58.8553 108.095 59.2853 107.625 59.8453 107.305C60.4053 106.975 61.0703 106.81 61.8403 106.81C62.5703 106.81 63.2103 106.975 63.7603 107.305C64.3203 107.625 64.7553 108.095 65.0653 108.715C65.3853 109.325 65.5453 110.075 65.5453 110.965ZM59.4703 110.965C59.4703 111.595 59.5503 112.145 59.7103 112.615C59.8803 113.075 60.1403 113.43 60.4903 113.68C60.8403 113.93 61.2853 114.055 61.8253 114.055C62.3653 114.055 62.8103 113.93 63.1603 113.68C63.5103 113.43 63.7653 113.075 63.9253 112.615C64.0953 112.145 64.1803 111.595 64.1803 110.965C64.1803 110.325 64.0953 109.78 63.9253 109.33C63.7553 108.88 63.4953 108.535 63.1453 108.295C62.8053 108.045 62.3603 107.92 61.8103 107.92C60.9903 107.92 60.3953 108.19 60.0253 108.73C59.6553 109.27 59.4703 110.015 59.4703 110.965ZM78.0773 110.965C78.0773 111.855 77.9323 112.615 77.6423 113.245C77.3523 113.865 76.9423 114.34 76.4123 114.67C75.8823 114.99 75.2523 115.15 74.5223 115.15C73.8423 115.15 73.2473 115.01 72.7373 114.73C72.2273 114.44 71.8223 114.02 71.5223 113.47C71.2223 112.91 71.0473 112.225 70.9973 111.415H68.9573V115H67.6373V106.96H68.9573V110.305H71.0123C71.0823 109.545 71.2673 108.91 71.5673 108.4C71.8773 107.88 72.2823 107.485 72.7823 107.215C73.2923 106.945 73.8823 106.81 74.5523 106.81C75.2423 106.81 75.8523 106.975 76.3823 107.305C76.9123 107.625 77.3273 108.095 77.6273 108.715C77.9273 109.325 78.0773 110.075 78.0773 110.965ZM72.3473 110.965C72.3473 111.635 72.4223 112.2 72.5723 112.66C72.7323 113.12 72.9723 113.47 73.2923 113.71C73.6123 113.94 74.0273 114.055 74.5373 114.055C75.0473 114.055 75.4623 113.94 75.7823 113.71C76.1023 113.47 76.3373 113.12 76.4873 112.66C76.6373 112.2 76.7123 111.635 76.7123 110.965C76.7123 110.295 76.6373 109.735 76.4873 109.285C76.3373 108.835 76.1023 108.495 75.7823 108.265C75.4623 108.035 75.0473 107.92 74.5373 107.92C74.0273 107.92 73.6123 108.035 73.2923 108.265C72.9723 108.495 72.7323 108.835 72.5723 109.285C72.4223 109.735 72.3473 110.295 72.3473 110.965ZM85.5799 108.07H82.9549V115H81.6499V108.07H79.0549V106.96H85.5799V108.07Z" fill="white"/>
</svg>
