<svg width="135" height="135" viewBox="0 0 135 135" fill="none" xmlns="http://www.w3.org/2000/svg">
<rect width="135" height="135" rx="20" fill="#01A560"/>
<path d="M92.3699 75.3313C91.6549 74.8578 90.6815 74.0526 89.708 72.7865C89.7771 71.126 89.0761 70.0518 88.9735 69.9081L88.6748 69.4867L88.1848 69.3681C88.0308 69.3315 87.8721 69.3112 87.7144 69.2861C87.2627 68.1968 86.9051 67.0684 86.6457 65.914L86.4357 64.9922C86.8465 63.2051 86.8121 61.3396 86.3359 59.57C88.1811 59.4967 89.9124 59.9953 88.9697 62.4503C86.9808 67.6295 95 71.963 95 71.963C95 71.963 90.5891 64.7106 93.9304 59.3164C95.9259 56.0909 89.5027 54.2047 85.144 56.8604C83.8989 54.926 82.0528 53.7872 79.9472 53.7862C79.7008 53.7862 79.4497 53.8026 79.1996 53.8344C77.962 53.9878 76.7384 54.171 75.554 54.3455C73.0657 54.7148 70.7137 55.0649 68.834 55.0649C65.543 55.0649 65.1968 53.954 65.0484 53.4796C64.9924 53.3021 64.9345 53.1363 64.8776 52.9618L65.6961 53.4188C65.5841 51.362 63.989 48.8934 63.989 48.8934L65.6224 49.1548C65.2472 46.9533 62.4238 45.0758 62.4238 45.0758L63.7632 44.8241C62.7636 43.0402 59.9496 41.83 59.9496 41.83L61.7173 41.7114C60.8269 40.455 57.6116 39.5312 57.6116 39.5312L58.9733 38.6132C55.9922 37.3702 53.6188 37.9922 53.6188 37.9922L54.2394 36.6055C52.0806 36.4734 50.3829 37.4792 49.5886 38.0626C48.436 35.9662 47.1433 35 47.1433 35C47.0602 35.5294 47.0313 35.999 47.0229 36.431C46.1241 35.9055 45.4512 35.7435 45.3252 35.7165L43.8085 35.4089L43.7012 37.0154C43.5798 38.8176 44.0213 40.4116 44.2873 41.183C43.7404 43.2282 41.5396 47.9542 40.3225 50.5694C39.6356 52.0447 39.2706 52.8335 39.1325 53.2105C38.411 55.1777 40.8022 57.1602 42.2909 58.167L42.751 58.4775L43.2896 58.3714C43.5145 58.327 43.7086 58.248 43.8776 58.1525C44.053 58.3743 44.2864 58.544 44.5542 58.6385C44.7325 58.7002 44.9192 58.734 45.1068 58.734C46.0868 58.734 46.7205 57.9355 47.3337 57.1641C47.7509 56.6395 48.2232 56.0446 48.7085 55.7678C49.7361 55.1815 50.591 54.5933 51.278 53.9993C51.0792 54.5903 50.8371 55.1648 50.5537 55.7177C48.5489 59.5488 49.6026 64.5438 50.2317 66.7404C48.4089 67.7838 45.5053 68.5417 44.3918 68.7712L43.4865 68.9583L43.3138 69.9033C41.435 80.2616 45.1413 84.0436 47.5166 85.3762C48.8 86.0936 49.8658 86.2036 49.9834 86.2142L51.2864 86.3289L51.4525 84.977L51.9649 80.8103L52.1665 79.1691L50.578 79.2067C50.5061 79.2067 49.933 79.2019 49.3357 79.0351C48.8886 78.9097 48.3286 78.6725 48.1849 78.2424C47.8984 77.389 48.1672 75.4036 48.5293 73.7855C49.0557 73.8231 49.5784 73.8434 50.0908 73.8434C50.843 73.8434 51.5542 73.7961 52.243 73.7267C52.1704 73.8172 52.0957 73.9059 52.019 73.9928C51.0129 75.094 51.0978 76.1962 51.2369 76.7555C51.5272 77.9155 52.4838 78.7111 53.251 78.9589C53.741 79.1151 56.8005 79.441 62.3473 79.9299L62.912 79.9791L63.346 79.5963C63.3534 79.5895 64.325 78.7439 65.4917 78.2704C65.9808 78.0708 66.4194 77.9705 66.7946 77.9705C66.8581 77.9705 66.9216 77.9734 66.985 77.9801L69.3482 78.2202L68.358 75.9696C68.2292 75.6765 67.0438 73.0758 65.1492 72.0855L64.4333 71.7104L63.7697 72.179C63.7464 72.1964 63.1826 72.5946 62.4789 73.1471C62.0617 73.4769 61.5222 73.9176 61.021 74.3756L60.6066 74.2493C61.4429 73.3332 62.7318 72.1183 64.4902 70.9177C64.9308 70.8859 65.3778 70.8637 65.8417 70.8637C67.937 70.8637 69.9839 71.1752 72.2089 71.5744C74.5404 75.9339 77.9088 76.8741 80.3775 76.8741C81.5451 76.8741 82.6371 76.6658 83.5564 76.3997C82.6231 81.3889 84.0865 84.8902 85.1683 86.6693C85.9177 87.8978 86.6103 88.5497 86.6868 88.6201L87.1031 89L87.6528 88.9749C90.0104 88.866 90.6161 85.4428 90.7449 84.3965L90.8448 83.5826L90.2195 83.0841C89.9345 82.8585 89.6714 82.605 89.4336 82.3271C88.8438 81.6382 88.4716 80.7796 88.3668 79.8663C88.7719 80.28 89.1872 80.6879 89.6287 81.0707C90.3448 81.7039 91.1096 82.276 91.9153 82.7813L93.2892 83.6386L93.8856 82.0909C93.9201 82.0022 94.7191 79.9039 94.776 77.4806L94.8021 76.3823L93.7895 76.0776C93.7895 76.0776 93.2033 75.8857 92.3699 75.3313ZM86.2033 69.209C86.0904 69.2129 85.9747 69.2148 85.8636 69.2196C85.662 69.2283 85.4632 69.2389 85.2644 69.2389C84.9592 69.2389 84.6633 69.2215 84.3357 69.1C84.8244 68.5555 85.2426 67.9477 85.5799 67.292C85.7684 67.9747 85.9784 68.6102 86.2033 69.209ZM43.0338 56.9732C43.0338 56.9732 39.9734 54.9038 40.4084 53.7178C40.8134 52.6079 44.6429 44.9321 45.5641 41.696L45.524 41.8368C45.93 42.237 46.8204 42.7278 47.5866 43.506C48.0692 43.9968 48.6021 44.6477 49.1593 45.449C48.6506 46.2089 47.1116 48.2734 43.3054 51.9762C42.7212 51.1759 42.191 50.6426 41.8896 50.4633L41.6021 51.0824C41.8158 51.2164 42.0268 51.3707 42.4328 51.794C43.0133 52.4005 44.0848 54.0639 44.7054 55.8633C44.7829 55.8237 44.9145 55.8209 45.0368 55.8286C43.815 55.9057 43.634 56.8546 43.0338 56.9732ZM48.0533 54.5191C46.658 55.3136 45.7993 57.3107 45.1077 57.3107C45.068 57.3101 45.0287 57.3033 44.991 57.2904C44.6429 57.1689 45.426 56.0764 45.314 55.8623L45.327 55.8643C44.9179 54.6966 44.3719 53.5852 43.7012 52.5548C47.287 49.0737 48.911 47.0073 49.5672 46.0661C50.3689 47.3053 51.2033 48.8346 51.9929 50.6494C51.7866 51.5684 50.8869 52.9 48.0533 54.5191ZM58.2304 75.0044L61.3832 75.9696C61.8685 75.4653 62.5218 74.9099 63.1117 74.4383C63.5858 74.986 64.1869 75.8317 64.7665 77.0467C63.9397 77.4283 63.1649 77.9204 62.4621 78.5105C62.4621 78.5105 54.2469 77.7873 53.6552 77.5993C53.0653 77.4093 51.8342 76.2589 53.0093 74.9725C53.294 74.6611 53.7177 74.0989 54.1909 73.4374C55.8616 73.1153 57.3876 72.6476 58.8772 72.1829C59.7661 71.8991 60.6611 71.6361 61.5614 71.3941C59.2729 73.3622 58.2304 75.0044 58.2304 75.0044ZM68.6128 69.6111C67.6935 69.5052 66.7695 69.4486 65.8445 69.4414C64.3568 69.4414 62.8532 69.5928 61.3328 69.9852C57.76 70.9071 54.5568 72.4181 50.0917 72.4181C49.275 72.4181 48.4154 72.367 47.5036 72.2533C47.5036 72.2533 46.2305 76.7237 46.896 78.7101C47.2254 79.6937 48.1401 80.1739 48.982 80.4082L49.0333 80.4198C48.785 81.2597 48.4453 82.5856 48.2138 84.1477C48.197 84.1381 48.1812 84.1313 48.1644 84.1226C45.9906 82.9048 42.961 79.5143 44.656 70.1685C44.656 70.1685 49.6194 69.1473 51.8594 67.3354C51.8594 67.3354 49.4356 60.8255 51.7521 56.4004C52.5977 54.7823 53.6673 51.8981 52.4997 50.0699C52.5013 50.0671 52.5032 50.0645 52.5053 50.0621C51.8828 48.6456 51.3629 47.313 50.5565 46.1047C49.818 44.9902 48.9793 43.9503 48.0514 42.9988C47.1321 42.0615 46.14 41.4916 45.7144 41.0798C45.7144 41.0798 44.9182 39.2641 45.0629 37.1147C45.0629 37.1147 46.8558 37.4801 48.5797 39.6479C48.5797 39.6479 49.149 39.4936 50.088 39.4936C53.0597 39.4945 59.7284 41.0403 63.7473 53.9212C63.8584 54.2761 64.0245 54.5731 64.2158 54.844C64.2065 54.8392 64.1962 54.8363 64.1869 54.8325C64.1869 54.8325 66.3298 57.2644 65.0288 59.3646C63.793 61.3607 66.0564 64.4792 69.6488 65.2371C69.6647 65.9439 69.5638 67.5919 68.6128 69.6111ZM85.6013 74.0333C85.6013 74.0333 83.226 75.4518 80.3803 75.4518C77.8911 75.4518 75.0407 74.366 73.1068 70.2929C72.266 70.1385 71.4231 69.9964 70.5784 69.8666C70.7063 69.6825 71.3241 68.6372 71.6377 65.4039C72.8121 65.3463 73.9646 65.0552 75.0323 64.5467C79.3751 62.5217 75.4821 57.6376 77.0081 55.5701C77.7856 55.4573 78.5705 55.3464 79.3611 55.2471C79.5599 55.223 79.7549 55.2105 79.9453 55.2105C81.6757 55.2114 83.0851 56.1998 84.0333 57.6781L84.0305 57.68C84.4288 58.3092 84.7396 58.9932 84.9536 59.7118H84.9555C85.9289 62.919 85.2457 67.0307 82.1004 69.1984C83.3305 70.4635 84.2956 70.6622 85.2644 70.6622C85.7087 70.6622 86.1529 70.6207 86.6233 70.6207C87.0172 70.6207 87.4307 70.6487 87.8759 70.7567C87.8759 70.7567 88.7429 71.9755 88.1475 73.8675C87.6155 75.5656 85.6779 79.847 88.3005 83.1227C87.9561 83.923 87.2935 85.138 86.2743 85.8246C85.0339 83.7389 83.6348 79.7805 85.6013 74.0333ZM88.4303 77.8615C88.588 76.8915 88.8941 75.9175 89.2161 74.9928C89.2749 74.824 89.3179 74.689 89.3664 74.5463C90.1756 75.4373 90.9699 76.0901 91.6353 76.5318L91.7791 76.6224C91.4664 78.2328 91.0361 79.3494 90.6563 80.1016C90.6077 80.0591 90.5555 80.0225 90.5069 79.9791C89.7547 79.3244 89.0743 78.6011 88.4303 77.8615Z" fill="white" fill-opacity="0.9"/>
<path d="M32.32 109.495L28.165 104.29H29.665L33.76 109.48V104.29H35.05V109.48L39.145 104.29H40.645L36.49 109.48L40.78 115H39.235L35.05 109.57V115H33.76V109.57L29.56 115H28.015L32.32 109.495ZM42.0924 115V106.96H43.4124V110.26H45.4974C46.1974 110.26 46.7724 110.345 47.2224 110.515C47.6724 110.685 48.0074 110.94 48.2274 111.28C48.4474 111.61 48.5574 112.03 48.5574 112.54C48.5574 113.04 48.4474 113.475 48.2274 113.845C48.0174 114.215 47.6824 114.5 47.2224 114.7C46.7724 114.9 46.1774 115 45.4374 115H42.0924ZM45.3174 113.935C45.8874 113.935 46.3524 113.84 46.7124 113.65C47.0724 113.45 47.2524 113.105 47.2524 112.615C47.2524 112.125 47.0874 111.795 46.7574 111.625C46.4274 111.445 45.9524 111.355 45.3324 111.355H43.4124V113.935H45.3174ZM49.8924 115V106.96H51.2124V115H49.8924ZM59.8872 115H58.5522V108.055H56.1822C56.0822 109.325 55.9572 110.41 55.8072 111.31C55.6572 112.2 55.4672 112.925 55.2372 113.485C55.0072 114.045 54.7322 114.455 54.4122 114.715C54.0922 114.975 53.7172 115.105 53.2872 115.105C53.1572 115.105 53.0272 115.095 52.8972 115.075C52.7772 115.065 52.6772 115.04 52.5972 115V114.01C52.6572 114.03 52.7222 114.045 52.7922 114.055C52.8622 114.065 52.9322 114.07 53.0022 114.07C53.2222 114.07 53.4222 113.98 53.6022 113.8C53.7822 113.62 53.9422 113.345 54.0822 112.975C54.2322 112.605 54.3672 112.14 54.4872 111.58C54.6072 111.01 54.7122 110.34 54.8022 109.57C54.8922 108.8 54.9722 107.93 55.0422 106.96H59.8872V115ZM67.1941 106.96H68.6341L65.1991 110.83L68.9191 115H67.3891L63.7591 110.92V115H62.4391V106.96H63.7591V110.86L67.1941 106.96ZM70.3785 115V106.96H71.6985V110.26H73.7835C74.4835 110.26 75.0585 110.345 75.5085 110.515C75.9585 110.685 76.2935 110.94 76.5135 111.28C76.7335 111.61 76.8435 112.03 76.8435 112.54C76.8435 113.04 76.7335 113.475 76.5135 113.845C76.3035 114.215 75.9685 114.5 75.5085 114.7C75.0585 114.9 74.4635 115 73.7235 115H70.3785ZM73.6035 113.935C74.1735 113.935 74.6385 113.84 74.9985 113.65C75.3585 113.45 75.5385 113.105 75.5385 112.615C75.5385 112.125 75.3735 111.795 75.0435 111.625C74.7135 111.445 74.2385 111.355 73.6185 111.355H71.6985V113.935H73.6035ZM78.1785 115V106.96H79.4985V115H78.1785ZM88.1733 115H86.8383V108.055H84.4683C84.3683 109.325 84.2433 110.41 84.0933 111.31C83.9433 112.2 83.7533 112.925 83.5233 113.485C83.2933 114.045 83.0183 114.455 82.6983 114.715C82.3783 114.975 82.0033 115.105 81.5733 115.105C81.4433 115.105 81.3133 115.095 81.1833 115.075C81.0633 115.065 80.9633 115.04 80.8833 115V114.01C80.9433 114.03 81.0083 114.045 81.0783 114.055C81.1483 114.065 81.2183 114.07 81.2883 114.07C81.5083 114.07 81.7083 113.98 81.8883 113.8C82.0683 113.62 82.2283 113.345 82.3683 112.975C82.5183 112.605 82.6533 112.14 82.7733 111.58C82.8933 111.01 82.9983 110.34 83.0883 109.57C83.1783 108.8 83.2583 107.93 83.3283 106.96H88.1733V115ZM93.7702 106.825C94.7502 106.825 95.4752 107.04 95.9452 107.47C96.4152 107.9 96.6502 108.585 96.6502 109.525V115H95.6902L95.4352 113.86H95.3752C95.1452 114.15 94.9052 114.395 94.6552 114.595C94.4152 114.785 94.1352 114.925 93.8152 115.015C93.5052 115.105 93.1252 115.15 92.6752 115.15C92.1952 115.15 91.7602 115.065 91.3702 114.895C90.9902 114.725 90.6902 114.465 90.4702 114.115C90.2502 113.755 90.1402 113.305 90.1402 112.765C90.1402 111.965 90.4552 111.35 91.0852 110.92C91.7152 110.48 92.6852 110.24 93.9952 110.2L95.3602 110.155V109.675C95.3602 109.005 95.2152 108.54 94.9252 108.28C94.6352 108.02 94.2252 107.89 93.6952 107.89C93.2752 107.89 92.8752 107.955 92.4952 108.085C92.1152 108.205 91.7602 108.345 91.4302 108.505L91.0252 107.515C91.3752 107.325 91.7902 107.165 92.2702 107.035C92.7502 106.895 93.2502 106.825 93.7702 106.825ZM94.1602 111.115C93.1602 111.155 92.4652 111.315 92.0752 111.595C91.6952 111.875 91.5052 112.27 91.5052 112.78C91.5052 113.23 91.6402 113.56 91.9102 113.77C92.1902 113.98 92.5452 114.085 92.9752 114.085C93.6552 114.085 94.2202 113.9 94.6702 113.53C95.1202 113.15 95.3452 112.57 95.3452 111.79V111.07L94.1602 111.115ZM102.958 106.81C103.948 106.81 104.743 107.155 105.343 107.845C105.953 108.535 106.258 109.575 106.258 110.965C106.258 111.875 106.118 112.645 105.838 113.275C105.568 113.895 105.183 114.365 104.683 114.685C104.193 114.995 103.613 115.15 102.943 115.15C102.533 115.15 102.168 115.095 101.848 114.985C101.528 114.875 101.253 114.735 101.023 114.565C100.803 114.385 100.613 114.19 100.453 113.98H100.363C100.383 114.15 100.403 114.365 100.423 114.625C100.443 114.885 100.453 115.11 100.453 115.3V118.6H99.1334V106.96H100.213L100.393 108.055H100.453C100.613 107.825 100.803 107.615 101.023 107.425C101.253 107.235 101.523 107.085 101.833 106.975C102.153 106.865 102.528 106.81 102.958 106.81ZM102.718 107.92C102.178 107.92 101.743 108.025 101.413 108.235C101.083 108.435 100.843 108.74 100.693 109.15C100.543 109.56 100.463 110.08 100.453 110.71V110.965C100.453 111.625 100.523 112.185 100.663 112.645C100.803 113.105 101.038 113.455 101.368 113.695C101.708 113.935 102.168 114.055 102.748 114.055C103.238 114.055 103.638 113.92 103.948 113.65C104.268 113.38 104.503 113.015 104.653 112.555C104.813 112.085 104.893 111.55 104.893 110.95C104.893 110.03 104.713 109.295 104.353 108.745C104.003 108.195 103.458 107.92 102.718 107.92Z" fill="white" fill-opacity="0.9"/>
</svg>
