<svg width="135" height="135" viewBox="0 0 135 135" fill="none" xmlns="http://www.w3.org/2000/svg">
<rect width="135" height="135" rx="20" fill="#01A560"/>
<path fill-rule="evenodd" clip-rule="evenodd" d="M60.1071 54.3623C58.3528 53.6617 56.4215 53.5729 54.6127 54.1096C52.804 54.6463 51.2191 55.7786 50.1039 57.3306C48.9888 58.8827 48.4058 60.7678 48.4453 62.6934C48.4849 64.619 49.1449 66.4774 50.3229 67.9801C51.5008 69.4829 53.1309 70.546 54.96 71.0045C56.7892 71.4631 58.7153 71.2913 60.4392 70.5159C62.1632 69.7405 63.5887 68.4049 64.4945 66.7163C65.4003 65.0277 65.7358 63.0806 65.4489 61.177C65.3996 60.8495 65.4796 60.5153 65.6713 60.248C65.863 59.9808 66.1506 59.8024 66.4709 59.752C66.7912 59.7016 67.118 59.7834 67.3793 59.9794C67.6406 60.1755 67.8151 60.4696 67.8644 60.7972C68.2329 63.2445 67.8012 65.7478 66.6363 67.9186C65.4715 70.0894 63.6386 71.8063 61.4221 72.803C59.2055 73.7996 56.7293 74.0202 54.3777 73.4305C52.026 72.8409 49.9304 71.4739 48.4161 69.5418C46.9017 67.6097 46.0533 65.2204 46.0024 62.7448C45.9516 60.2692 46.7011 57.8456 48.1348 55.8501C49.5685 53.8547 51.6061 52.3989 53.9314 51.7088C56.2568 51.0186 58.7399 51.1327 60.9954 52.0332C61.1469 52.0914 61.2856 52.1797 61.4035 52.293C61.5213 52.4064 61.616 52.5426 61.682 52.6937C61.748 52.8448 61.7839 53.0078 61.7878 53.1732C61.7917 53.3387 61.7634 53.5032 61.7046 53.6574C61.6457 53.8116 61.5576 53.9522 61.4451 54.0712C61.3327 54.1903 61.1983 54.2853 61.0497 54.3507C60.9011 54.4162 60.7412 54.4508 60.5794 54.4526C60.4176 54.4544 60.2571 54.4232 60.1071 54.3611V54.3623Z" fill="white" fill-opacity="0.9"/>
<path fill-rule="evenodd" clip-rule="evenodd" d="M55.7754 83.7506V73.7546C55.7754 73.4232 55.9041 73.1054 56.1332 72.8711C56.3624 72.6368 56.6732 72.5051 56.9972 72.5051C57.3212 72.5051 57.632 72.6368 57.8611 72.8711C58.0903 73.1054 58.219 73.4232 58.219 73.7546V83.7506C58.219 84.0819 58.0903 84.3998 57.8611 84.6341C57.632 84.8684 57.3212 85 56.9972 85C56.6732 85 56.3624 84.8684 56.1332 84.6341C55.9041 84.3998 55.7754 84.0819 55.7754 83.7506Z" fill="white" fill-opacity="0.9"/>
<path fill-rule="evenodd" clip-rule="evenodd" d="M52.1091 77.5033C52.1091 77.1719 52.2379 76.8541 52.467 76.6197C52.6961 76.3854 53.0069 76.2538 53.3309 76.2538H60.6618C60.9858 76.2538 61.2966 76.3854 61.5257 76.6197C61.7548 76.8541 61.8836 77.1719 61.8836 77.5033C61.8836 77.8346 61.7548 78.1525 61.5257 78.3868C61.2966 78.6211 60.9858 78.7528 60.6618 78.7528H53.3309C53.0069 78.7528 52.6961 78.6211 52.467 78.3868C52.2379 78.1525 52.1091 77.8346 52.1091 77.5033ZM73.9819 54.0915C72.6278 53.7006 71.2004 53.6574 69.8262 53.9656C68.4519 54.2738 67.1732 54.9239 66.1034 55.8584C65.0336 56.7929 64.2057 57.9829 63.6932 59.3229C63.1807 60.6628 62.9994 62.1114 63.1652 63.5402C63.1851 63.7036 63.1731 63.8693 63.1301 64.028C63.0871 64.1866 63.0138 64.335 62.9145 64.4646C62.8153 64.5942 62.6919 64.7025 62.5516 64.7832C62.4113 64.8639 62.2568 64.9154 62.0969 64.9348C61.937 64.9543 61.775 64.9412 61.6201 64.8964C61.4652 64.8516 61.3205 64.7759 61.1943 64.6737C61.0681 64.5715 60.9628 64.4448 60.8847 64.3009C60.8065 64.1569 60.7569 63.9987 60.7387 63.8351C60.4533 61.3761 60.9694 58.8895 62.2071 56.7612C63.4448 54.6329 65.3348 52.9819 67.5838 52.0644C69.8328 51.1469 72.315 51.0141 74.6453 51.6868C76.9756 52.3594 79.0237 53.7998 80.4717 55.7845C81.9197 57.7692 82.6866 60.1872 82.6535 62.6632C82.6204 65.1392 81.789 67.5347 80.2885 69.4782C78.788 71.4216 76.7022 72.8042 74.3547 73.4114C72.0073 74.0186 69.5295 73.8165 67.3059 72.8364C67.1586 72.7715 67.0251 72.6776 66.9133 72.5599C66.8014 72.4423 66.7133 72.3033 66.6539 72.1508C66.5341 71.8429 66.5388 71.499 66.6669 71.1946C66.7951 70.8902 67.0362 70.6504 67.3373 70.5278C67.6384 70.4052 67.9747 70.41 68.2724 70.5411C69.3479 71.0178 70.5077 71.2633 71.6799 71.2625C72.8521 71.2616 74.0116 71.0144 75.0864 70.5361C76.1613 70.0579 77.1286 69.3588 77.9282 68.4823C78.7279 67.6059 79.3428 66.5706 79.7349 65.441C80.127 64.3113 80.2879 63.1112 80.2076 61.9153C80.1273 60.7194 79.8074 59.5531 79.268 58.4888C78.7285 57.4246 77.9809 56.4851 77.0716 55.7287C76.1622 54.9722 75.1106 54.415 73.9819 54.0915Z" fill="white" fill-opacity="0.9"/>
<path fill-rule="evenodd" clip-rule="evenodd" d="M78.7357 56.5202C78.5066 56.2858 78.3779 55.9681 78.3779 55.6368C78.3779 55.3054 78.5066 54.9877 78.7357 54.7534L87.8992 45.3822C88.0119 45.2628 88.1467 45.1677 88.2958 45.1022C88.4448 45.0367 88.6052 45.0022 88.7674 45.0008C88.9296 44.9993 89.0905 45.031 89.2407 45.0938C89.3908 45.1566 89.5272 45.2494 89.642 45.3667C89.7567 45.484 89.8474 45.6235 89.9088 45.7771C89.9703 45.9306 90.0012 46.0952 89.9998 46.2611C89.9984 46.427 89.9647 46.5909 89.9006 46.7434C89.8366 46.8958 89.7435 47.0337 89.6268 47.149L80.4633 56.5202C80.2342 56.7544 79.9235 56.886 79.5995 56.886C79.2755 56.886 78.9648 56.7544 78.7357 56.5202Z" fill="white" fill-opacity="0.9"/>
<path fill-rule="evenodd" clip-rule="evenodd" d="M88.669 53.7627C88.5085 53.7606 88.35 53.7261 88.2026 53.6614C88.0552 53.5966 87.9216 53.5028 87.8097 53.3853C87.6977 53.2677 87.6094 53.1288 87.55 52.9764C87.4905 52.8239 87.461 52.661 87.4631 52.497L87.5241 47.5315L82.6687 47.5939C82.3447 47.5983 82.0322 47.4707 81.8001 47.2395C81.568 47.0082 81.4352 46.6921 81.431 46.3607C81.4268 46.0293 81.5515 45.7098 81.7776 45.4724C82.0038 45.235 82.3129 45.0993 82.6369 45.095L89.9995 45L89.9067 52.5282C89.9047 52.6924 89.8712 52.8546 89.808 53.0055C89.7447 53.1564 89.653 53.2931 89.538 53.4078C89.4231 53.5224 89.2872 53.6128 89.138 53.6737C88.9889 53.7346 88.8295 53.7648 88.669 53.7627Z" fill="white" fill-opacity="0.9"/>
<path d="M21.4092 113.287L24.1191 106.336H26.1479L22.4419 115.066C22.3247 115.335 22.1904 115.596 22.0391 115.85C21.8926 116.099 21.7144 116.321 21.5044 116.517C21.2944 116.712 21.0405 116.868 20.7427 116.985C20.4448 117.098 20.0835 117.154 19.6587 117.154C19.5464 117.154 19.4097 117.149 19.2485 117.139C19.0923 117.129 18.9775 117.12 18.9043 117.11L18.9189 115.667C18.9775 115.677 19.0752 115.684 19.2119 115.689C19.3535 115.694 19.4561 115.696 19.5195 115.696C19.8027 115.696 20.0273 115.65 20.1934 115.557C20.3594 115.459 20.4912 115.33 20.5889 115.169C20.6914 115.003 20.7817 114.822 20.8599 114.627L21.4092 113.287ZM19.373 106.336L22.0537 112.239L22.5811 114.158L21.1528 114.209L17.3662 106.336H19.373ZM28.4551 110.599V120.047H26.6899V109.075H28.3159L28.4551 110.599ZM33.6187 112.964V113.118C33.6187 113.694 33.5503 114.229 33.4136 114.722C33.2817 115.21 33.084 115.638 32.8203 116.004C32.5615 116.365 32.2417 116.646 31.8608 116.846C31.48 117.046 31.0405 117.146 30.5425 117.146C30.0493 117.146 29.6172 117.056 29.2461 116.875C28.8799 116.69 28.5698 116.429 28.3159 116.092C28.062 115.755 27.8569 115.359 27.7007 114.905C27.5493 114.446 27.4419 113.943 27.3784 113.396V112.803C27.4419 112.222 27.5493 111.695 27.7007 111.221C27.8569 110.748 28.062 110.34 28.3159 109.998C28.5698 109.656 28.8799 109.393 29.2461 109.207C29.6123 109.021 30.0396 108.929 30.5278 108.929C31.0259 108.929 31.4678 109.026 31.8535 109.222C32.2393 109.412 32.564 109.686 32.8276 110.042C33.0913 110.394 33.2891 110.818 33.4209 111.316C33.5527 111.81 33.6187 112.359 33.6187 112.964ZM31.8535 113.118V112.964C31.8535 112.598 31.8193 112.259 31.751 111.946C31.6826 111.629 31.5752 111.351 31.4287 111.111C31.2822 110.872 31.0942 110.687 30.8647 110.555C30.6401 110.418 30.3691 110.35 30.0518 110.35C29.7393 110.35 29.4707 110.403 29.2461 110.511C29.0215 110.613 28.8335 110.757 28.6821 110.943C28.5308 111.128 28.4136 111.346 28.3306 111.595C28.2476 111.839 28.189 112.105 28.1548 112.393V113.814C28.2134 114.166 28.3135 114.488 28.4551 114.781C28.5967 115.074 28.7969 115.308 29.0557 115.484C29.3193 115.655 29.6562 115.74 30.0664 115.74C30.3838 115.74 30.6548 115.672 30.8794 115.535C31.104 115.398 31.2871 115.21 31.4287 114.971C31.5752 114.727 31.6826 114.446 31.751 114.129C31.8193 113.812 31.8535 113.475 31.8535 113.118ZM37.332 116.136L39.4854 109.075H41.375L38.1963 118.208C38.123 118.404 38.0278 118.616 37.9106 118.846C37.7935 119.075 37.6396 119.292 37.4492 119.498C37.2637 119.708 37.0317 119.876 36.7534 120.003C36.4751 120.135 36.1382 120.201 35.7427 120.201C35.5864 120.201 35.4351 120.186 35.2886 120.157C35.147 120.132 35.0127 120.105 34.8857 120.076L34.8784 118.729C34.9272 118.733 34.9858 118.738 35.0542 118.743C35.1274 118.748 35.186 118.75 35.23 118.75C35.5229 118.75 35.7671 118.714 35.9624 118.641C36.1577 118.572 36.3164 118.46 36.4385 118.304C36.5654 118.147 36.6729 117.938 36.7607 117.674L37.332 116.136ZM36.1162 109.075L37.9985 115.008L38.3135 116.868L37.0903 117.183L34.2119 109.075H36.1162ZM44.29 109.075V117H42.5249V109.075H44.29ZM49.4609 109.075L45.894 113.843H43.8799L43.6455 112.247H45.1177L47.2563 109.075H49.4609ZM47.3955 117L45.0078 113.543L46.3994 112.54L49.7173 117H47.3955ZM54.3535 109.075V117H52.5811V109.075H54.3535ZM56.9536 109.075V110.467H50.0249V109.075H56.9536ZM62.4834 115.411V111.631C62.4834 111.348 62.4321 111.104 62.3296 110.899C62.2271 110.694 62.0708 110.535 61.8608 110.423C61.6558 110.311 61.397 110.254 61.0845 110.254C60.7964 110.254 60.5474 110.303 60.3374 110.401C60.1274 110.499 59.9639 110.63 59.8467 110.796C59.7295 110.962 59.6709 111.15 59.6709 111.36H57.9131C57.9131 111.048 57.9888 110.745 58.1401 110.452C58.2915 110.159 58.5112 109.898 58.7993 109.668C59.0874 109.439 59.4316 109.258 59.832 109.126C60.2324 108.995 60.6816 108.929 61.1797 108.929C61.7754 108.929 62.3027 109.029 62.7617 109.229C63.2256 109.429 63.5894 109.732 63.853 110.137C64.1216 110.538 64.2559 111.041 64.2559 111.646V115.169C64.2559 115.53 64.2803 115.855 64.3291 116.143C64.3828 116.426 64.4585 116.673 64.5562 116.883V117H62.7471C62.6641 116.81 62.5981 116.568 62.5493 116.275C62.5054 115.977 62.4834 115.689 62.4834 115.411ZM62.7397 112.181L62.7544 113.272H61.4873C61.1602 113.272 60.8721 113.304 60.623 113.367C60.374 113.426 60.1665 113.514 60.0005 113.631C59.8345 113.748 59.71 113.89 59.627 114.056C59.5439 114.222 59.5024 114.41 59.5024 114.62C59.5024 114.83 59.5513 115.022 59.6489 115.198C59.7466 115.369 59.8882 115.503 60.0737 115.601C60.2642 115.699 60.4937 115.748 60.7622 115.748C61.1235 115.748 61.4385 115.674 61.707 115.528C61.9805 115.376 62.1953 115.193 62.3516 114.979C62.5078 114.759 62.5908 114.551 62.6006 114.356L63.1719 115.14C63.1133 115.34 63.0132 115.555 62.8716 115.784C62.73 116.014 62.5444 116.233 62.3149 116.443C62.0903 116.648 61.8193 116.817 61.502 116.949C61.1895 117.081 60.8281 117.146 60.418 117.146C59.9004 117.146 59.439 117.044 59.0337 116.839C58.6284 116.629 58.311 116.348 58.0815 115.997C57.8521 115.64 57.7373 115.237 57.7373 114.788C57.7373 114.368 57.8154 113.997 57.9717 113.675C58.1328 113.348 58.3672 113.074 58.6748 112.854C58.9873 112.635 59.3682 112.469 59.8174 112.356C60.2666 112.239 60.7793 112.181 61.3555 112.181H62.7397ZM71.5142 112.386V113.777H67.4126V112.386H71.5142ZM67.9253 109.075V117H66.1602V109.075H67.9253ZM72.7886 109.075V117H71.0234V109.075H72.7886ZM76.1064 109.075H77.8716L77.7837 111.866C77.7593 112.676 77.6665 113.372 77.5054 113.953C77.3442 114.534 77.1343 115.025 76.8755 115.425C76.6167 115.821 76.3237 116.146 75.9966 116.399C75.6743 116.653 75.335 116.854 74.9785 117H74.4585V115.608L74.7075 115.594C74.9175 115.369 75.0981 115.145 75.2495 114.92C75.4058 114.69 75.5376 114.439 75.645 114.166C75.7524 113.887 75.8354 113.562 75.894 113.191C75.9575 112.82 75.999 112.378 76.0186 111.866L76.1064 109.075ZM76.5752 109.075H81.5996V117H79.8418V110.569H76.5752V109.075ZM74.0557 115.594H82.6836V119.358H80.9185V117H75.8428V119.358H74.0483L74.0557 115.594ZM85.2544 111.595H87.5908C88.2744 111.595 88.8555 111.709 89.334 111.939C89.8125 112.168 90.1763 112.488 90.4253 112.898C90.6792 113.304 90.8062 113.768 90.8062 114.29C90.8062 114.676 90.7354 115.035 90.5938 115.367C90.4521 115.694 90.2422 115.979 89.9639 116.224C89.6904 116.468 89.3535 116.658 88.9531 116.795C88.5576 116.932 88.1035 117 87.5908 117H84.0825V109.075H85.855V115.601H87.5908C87.9424 115.601 88.2231 115.54 88.4331 115.418C88.6431 115.296 88.7944 115.137 88.8872 114.942C88.9849 114.747 89.0337 114.539 89.0337 114.319C89.0337 114.095 88.9849 113.882 88.8872 113.682C88.7944 113.482 88.6431 113.318 88.4331 113.191C88.2231 113.064 87.9424 113.001 87.5908 113.001H85.2544V111.595ZM93.9263 109.075V117H92.1611V109.075H93.9263ZM97.7861 110.599V120.047H96.021V109.075H97.647L97.7861 110.599ZM102.95 112.964V113.118C102.95 113.694 102.881 114.229 102.745 114.722C102.613 115.21 102.415 115.638 102.151 116.004C101.893 116.365 101.573 116.646 101.192 116.846C100.811 117.046 100.372 117.146 99.8735 117.146C99.3804 117.146 98.9482 117.056 98.5771 116.875C98.2109 116.69 97.9009 116.429 97.647 116.092C97.3931 115.755 97.188 115.359 97.0317 114.905C96.8804 114.446 96.7729 113.943 96.7095 113.396V112.803C96.7729 112.222 96.8804 111.695 97.0317 111.221C97.188 110.748 97.3931 110.34 97.647 109.998C97.9009 109.656 98.2109 109.393 98.5771 109.207C98.9434 109.021 99.3706 108.929 99.8589 108.929C100.357 108.929 100.799 109.026 101.185 109.222C101.57 109.412 101.895 109.686 102.159 110.042C102.422 110.394 102.62 110.818 102.752 111.316C102.884 111.81 102.95 112.359 102.95 112.964ZM101.185 113.118V112.964C101.185 112.598 101.15 112.259 101.082 111.946C101.014 111.629 100.906 111.351 100.76 111.111C100.613 110.872 100.425 110.687 100.196 110.555C99.9712 110.418 99.7002 110.35 99.3828 110.35C99.0703 110.35 98.8018 110.403 98.5771 110.511C98.3525 110.613 98.1646 110.757 98.0132 110.943C97.8618 111.128 97.7446 111.346 97.6616 111.595C97.5786 111.839 97.52 112.105 97.4858 112.393V113.814C97.5444 114.166 97.6445 114.488 97.7861 114.781C97.9277 115.074 98.1279 115.308 98.3867 115.484C98.6504 115.655 98.9873 115.74 99.3975 115.74C99.7148 115.74 99.9858 115.672 100.21 115.535C100.435 115.398 100.618 115.21 100.76 114.971C100.906 114.727 101.014 114.446 101.082 114.129C101.15 113.812 101.185 113.475 101.185 113.118ZM106.663 116.136L108.816 109.075H110.706L107.527 118.208C107.454 118.404 107.359 118.616 107.242 118.846C107.125 119.075 106.971 119.292 106.78 119.498C106.595 119.708 106.363 119.876 106.084 120.003C105.806 120.135 105.469 120.201 105.074 120.201C104.917 120.201 104.766 120.186 104.62 120.157C104.478 120.132 104.344 120.105 104.217 120.076L104.209 118.729C104.258 118.733 104.317 118.738 104.385 118.743C104.458 118.748 104.517 118.75 104.561 118.75C104.854 118.75 105.098 118.714 105.293 118.641C105.489 118.572 105.647 118.46 105.77 118.304C105.896 118.147 106.004 117.938 106.092 117.674L106.663 116.136ZM105.447 109.075L107.33 115.008L107.645 116.868L106.421 117.183L103.543 109.075H105.447ZM114.017 116.136L116.17 109.075H118.06L114.881 118.208C114.808 118.404 114.712 118.616 114.595 118.846C114.478 119.075 114.324 119.292 114.134 119.498C113.948 119.708 113.716 119.876 113.438 120.003C113.16 120.135 112.823 120.201 112.427 120.201C112.271 120.201 112.12 120.186 111.973 120.157C111.832 120.132 111.697 120.105 111.57 120.076L111.563 118.729C111.612 118.733 111.67 118.738 111.739 118.743C111.812 118.748 111.871 118.75 111.915 118.75C112.208 118.75 112.452 118.714 112.647 118.641C112.842 118.572 113.001 118.46 113.123 118.304C113.25 118.147 113.357 117.938 113.445 117.674L114.017 116.136ZM112.801 109.075L114.683 115.008L114.998 116.868L113.775 117.183L110.896 109.075H112.801Z" fill="white"/>
</svg>
