<svg width="26" height="26" viewBox="0 0 26 26" fill="none" xmlns="http://www.w3.org/2000/svg">
<path fill-rule="evenodd" clip-rule="evenodd" d="M3.809 21.2601C10.654 20.3636 15.367 20.4407 22.221 21.2915C22.7174 21.356 23.1709 21.5793 23.4979 21.9203C23.8249 22.2612 24.0033 22.6967 24 23.1464C24 23.5767 23.835 23.9945 23.537 24.3208C23.0176 24.8898 22.4855 25.4493 21.941 25.9991H24.582C24.748 25.8216 24.915 25.6405 25.084 25.4567C25.6772 24.8046 26.0007 23.9887 26 23.1473C26 21.3318 24.522 19.7674 22.495 19.5164C15.479 18.6458 10.575 18.5625 3.52 19.4868C1.472 19.7548 0 21.3435 0 23.1715C0 23.9828 0.295 24.7852 0.854 25.4352C1.019 25.627 1.182 25.8153 1.344 26H3.921C3.41442 25.4563 2.92032 24.9033 2.439 24.3414C2.15296 24.0051 1.99866 23.5935 2 23.1706C2 22.205 2.774 21.3955 3.809 21.2601ZM13 12.5513C13.7879 12.5513 14.5681 12.4122 15.2961 12.1418C16.0241 11.8715 16.6855 11.4753 17.2426 10.9758C17.7998 10.4763 18.2417 9.88329 18.5433 9.23067C18.8448 8.57804 19 7.87856 19 7.17217C19 6.46577 18.8448 5.76629 18.5433 5.11366C18.2417 4.46104 17.7998 3.86805 17.2426 3.36855C16.6855 2.86905 16.0241 2.47283 15.2961 2.2025C14.5681 1.93218 13.7879 1.79304 13 1.79304C11.4087 1.79304 9.88258 2.35977 8.75736 3.36855C7.63214 4.37733 7 5.74553 7 7.17217C7 8.5988 7.63214 9.967 8.75736 10.9758C9.88258 11.9846 11.4087 12.5513 13 12.5513ZM13 14.3443C15.1217 14.3443 17.1566 13.5887 18.6569 12.2437C20.1571 10.8986 21 9.07434 21 7.17217C21 5.26999 20.1571 3.44572 18.6569 2.10068C17.1566 0.755637 15.1217 0 13 0C10.8783 0 8.84344 0.755637 7.34314 2.10068C5.84285 3.44572 5 5.26999 5 7.17217C5 9.07434 5.84285 10.8986 7.34314 12.2437C8.84344 13.5887 10.8783 14.3443 13 14.3443Z" fill="white" fill-opacity="0.53"/>
</svg>
