<svg width="135" height="135" viewBox="0 0 135 135" fill="none" xmlns="http://www.w3.org/2000/svg">
<rect width="135" height="135" rx="20" fill="#01A560"/>
<path d="M54.8 109.63C54.8 110.46 54.695 111.215 54.485 111.895C54.275 112.565 53.96 113.145 53.54 113.635C53.13 114.125 52.615 114.5 51.995 114.76C51.385 115.02 50.675 115.15 49.865 115.15C49.025 115.15 48.295 115.02 47.675 114.76C47.055 114.49 46.54 114.115 46.13 113.635C45.72 113.145 45.415 112.56 45.215 111.88C45.015 111.2 44.915 110.445 44.915 109.615C44.915 108.515 45.095 107.555 45.455 106.735C45.815 105.915 46.36 105.275 47.09 104.815C47.83 104.355 48.76 104.125 49.88 104.125C50.95 104.125 51.85 104.355 52.58 104.815C53.31 105.265 53.86 105.905 54.23 106.735C54.61 107.555 54.8 108.52 54.8 109.63ZM46.34 109.63C46.34 110.53 46.465 111.305 46.715 111.955C46.965 112.605 47.35 113.105 47.87 113.455C48.4 113.805 49.065 113.98 49.865 113.98C50.675 113.98 51.335 113.805 51.845 113.455C52.365 113.105 52.75 112.605 53 111.955C53.25 111.305 53.375 110.53 53.375 109.63C53.375 108.28 53.095 107.225 52.535 106.465C51.975 105.695 51.09 105.31 49.88 105.31C49.07 105.31 48.4 105.485 47.87 105.835C47.35 106.175 46.965 106.67 46.715 107.32C46.465 107.96 46.34 108.73 46.34 109.63ZM63.9837 110.965C63.9837 111.635 63.8938 112.23 63.7138 112.75C63.5438 113.26 63.2938 113.695 62.9638 114.055C62.6438 114.415 62.2488 114.69 61.7788 114.88C61.3188 115.06 60.8038 115.15 60.2338 115.15C59.7038 115.15 59.2138 115.06 58.7638 114.88C58.3138 114.69 57.9238 114.415 57.5938 114.055C57.2638 113.695 57.0038 113.26 56.8138 112.75C56.6338 112.23 56.5438 111.635 56.5438 110.965C56.5438 110.075 56.6938 109.325 56.9938 108.715C57.2938 108.095 57.7238 107.625 58.2838 107.305C58.8438 106.975 59.5088 106.81 60.2788 106.81C61.0088 106.81 61.6488 106.975 62.1988 107.305C62.7588 107.625 63.1938 108.095 63.5038 108.715C63.8238 109.325 63.9837 110.075 63.9837 110.965ZM57.9088 110.965C57.9088 111.595 57.9888 112.145 58.1488 112.615C58.3188 113.075 58.5788 113.43 58.9288 113.68C59.2788 113.93 59.7238 114.055 60.2638 114.055C60.8038 114.055 61.2488 113.93 61.5988 113.68C61.9488 113.43 62.2038 113.075 62.3638 112.615C62.5338 112.145 62.6188 111.595 62.6188 110.965C62.6188 110.325 62.5338 109.78 62.3638 109.33C62.1938 108.88 61.9338 108.535 61.5838 108.295C61.2438 108.045 60.7988 107.92 60.2488 107.92C59.4288 107.92 58.8338 108.19 58.4638 108.73C58.0938 109.27 57.9088 110.015 57.9088 110.965ZM69.9008 106.81C70.8908 106.81 71.6858 107.155 72.2858 107.845C72.8958 108.535 73.2008 109.575 73.2008 110.965C73.2008 111.875 73.0608 112.645 72.7808 113.275C72.5108 113.895 72.1258 114.365 71.6258 114.685C71.1358 114.995 70.5558 115.15 69.8858 115.15C69.4758 115.15 69.1108 115.095 68.7908 114.985C68.4708 114.875 68.1958 114.735 67.9658 114.565C67.7458 114.385 67.5558 114.19 67.3958 113.98H67.3058C67.3258 114.15 67.3458 114.365 67.3658 114.625C67.3858 114.885 67.3958 115.11 67.3958 115.3V118.6H66.0758V106.96H67.1558L67.3358 108.055H67.3958C67.5558 107.825 67.7458 107.615 67.9658 107.425C68.1958 107.235 68.4658 107.085 68.7758 106.975C69.0958 106.865 69.4708 106.81 69.9008 106.81ZM69.6608 107.92C69.1208 107.92 68.6858 108.025 68.3558 108.235C68.0258 108.435 67.7858 108.74 67.6358 109.15C67.4858 109.56 67.4058 110.08 67.3958 110.71V110.965C67.3958 111.625 67.4658 112.185 67.6058 112.645C67.7458 113.105 67.9808 113.455 68.3108 113.695C68.6508 113.935 69.1108 114.055 69.6908 114.055C70.1808 114.055 70.5808 113.92 70.8908 113.65C71.2108 113.38 71.4458 113.015 71.5958 112.555C71.7558 112.085 71.8358 111.55 71.8358 110.95C71.8358 110.03 71.6558 109.295 71.2958 108.745C70.9458 108.195 70.4008 107.92 69.6608 107.92ZM73.8978 106.96H75.3078L77.0478 111.535C77.1478 111.805 77.2378 112.065 77.3178 112.315C77.4078 112.565 77.4878 112.81 77.5578 113.05C77.6278 113.28 77.6828 113.505 77.7228 113.725H77.7828C77.8428 113.475 77.9378 113.15 78.0678 112.75C78.1978 112.34 78.3328 111.93 78.4728 111.52L80.1078 106.96H81.5328L78.0678 116.11C77.8778 116.61 77.6528 117.045 77.3928 117.415C77.1428 117.795 76.8328 118.085 76.4628 118.285C76.1028 118.495 75.6628 118.6 75.1428 118.6C74.9028 118.6 74.6928 118.585 74.5128 118.555C74.3328 118.535 74.1778 118.51 74.0478 118.48V117.43C74.1578 117.45 74.2878 117.47 74.4378 117.49C74.5978 117.51 74.7628 117.52 74.9328 117.52C75.2428 117.52 75.5078 117.46 75.7278 117.34C75.9578 117.23 76.1528 117.065 76.3128 116.845C76.4728 116.635 76.6078 116.385 76.7178 116.095L77.1378 115.03L73.8978 106.96ZM81.5443 106.96H82.9543L84.6943 111.535C84.7943 111.805 84.8843 112.065 84.9643 112.315C85.0543 112.565 85.1343 112.81 85.2043 113.05C85.2743 113.28 85.3293 113.505 85.3693 113.725H85.4293C85.4893 113.475 85.5843 113.15 85.7143 112.75C85.8443 112.34 85.9793 111.93 86.1193 111.52L87.7543 106.96H89.1793L85.7143 116.11C85.5243 116.61 85.2993 117.045 85.0393 117.415C84.7893 117.795 84.4793 118.085 84.1093 118.285C83.7493 118.495 83.3093 118.6 82.7893 118.6C82.5493 118.6 82.3393 118.585 82.1593 118.555C81.9793 118.535 81.8243 118.51 81.6943 118.48V117.43C81.8043 117.45 81.9343 117.47 82.0843 117.49C82.2443 117.51 82.4093 117.52 82.5793 117.52C82.8893 117.52 83.1543 117.46 83.3743 117.34C83.6043 117.23 83.7993 117.065 83.9593 116.845C84.1193 116.635 84.2543 116.385 84.3643 116.095L84.7843 115.03L81.5443 106.96Z" fill="white"/>
<path fill-rule="evenodd" clip-rule="evenodd" d="M43.3866 52.8588C43.139 53.1066 42.9999 53.4426 43 53.793C43.0001 54.1433 43.1394 54.4792 43.3872 54.7269C43.635 54.9745 43.971 55.1136 44.3213 55.1135C44.6717 55.1134 45.0076 54.9741 45.2553 54.7263L46.189 53.7925L50.8578 58.4612L47.1228 62.1974C46.9966 62.3192 46.896 62.4649 46.8268 62.626C46.7576 62.7872 46.7212 62.9605 46.7197 63.1358C46.7182 63.3112 46.7516 63.4851 46.818 63.6474C46.8844 63.8097 46.9825 63.9571 47.1065 64.0811C47.2305 64.2051 47.3779 64.3032 47.5402 64.3696C47.7025 64.436 47.8764 64.4694 48.0518 64.4679C48.2271 64.4664 48.4004 64.43 48.5616 64.3608C48.7227 64.2916 48.8684 64.191 48.9903 64.0648L50.8578 62.1974L66.7362 78.0755C67.6448 78.9842 68.7987 79.6081 70.0566 79.8709C71.3145 80.1336 72.6217 80.0238 73.8181 79.5549L75.1422 80.8779C75.47 81.2058 75.8784 81.4417 76.3262 81.5617C76.7741 81.6817 77.2456 81.6817 77.6935 81.5616L80.7447 84.6128C80.8674 84.7355 81.013 84.8329 81.1732 84.8993C81.3334 84.9657 81.5052 85 81.6787 85C81.8521 85.0001 82.0239 84.9659 82.1842 84.8996C82.3445 84.8333 82.4901 84.736 82.6128 84.6134C82.7355 84.4908 82.8329 84.3452 82.8993 84.185C82.9657 84.0247 82.9999 83.853 83 83.6795C83.0001 83.506 82.9659 83.3343 82.8996 83.174C82.8333 83.0137 82.736 82.868 82.6134 82.7454L79.561 79.693C79.6809 79.2451 79.6808 78.7734 79.5605 78.3256C79.4403 77.8777 79.2043 77.4694 78.8761 77.1418L77.5542 75.8188C78.0236 74.6223 78.1337 73.315 77.8711 72.0569C77.6085 70.7988 76.9847 69.6447 76.076 68.7358L60.1976 52.8577L62.0662 50.9902C62.1889 50.8675 62.2863 50.7218 62.3527 50.5615C62.4191 50.4012 62.4533 50.2294 62.4533 50.0559C62.4533 49.8824 62.4191 49.7105 62.3527 49.5502C62.2863 49.3899 62.1889 49.2443 62.0662 49.1216C61.9436 48.9989 61.7979 48.9015 61.6376 48.8351C61.4773 48.7687 61.3054 48.7346 61.1319 48.7346C60.9584 48.7346 60.7866 48.7687 60.6263 48.8351C60.466 48.9015 60.3203 48.9989 60.1976 49.1216L56.4626 52.8577L51.7938 48.189L52.7264 47.2552C52.8491 47.1326 52.9465 46.987 53.0129 46.8268C53.0793 46.6665 53.1136 46.4948 53.1136 46.3213C53.1137 46.1479 53.0795 45.9761 53.0132 45.8158C52.9469 45.6555 52.8496 45.5099 52.727 45.3872C52.6044 45.2645 52.4588 45.1671 52.2985 45.1007C52.1383 45.0343 51.9665 45.0001 51.7931 45C51.6196 44.9999 51.4478 45.0341 51.2875 45.1004C51.1273 45.1667 50.9816 45.264 50.8589 45.3866L43.3866 52.8588ZM54.8473 54.4717L50.1786 49.803L47.8042 52.1773L52.473 56.846L54.8473 54.4717ZM58.5835 54.4717L52.4719 60.5833L57.5014 65.6127L63.613 59.5012L58.5835 54.4729V54.4717ZM59.37 67.4813L62.1713 70.2825L64.2933 68.1605C64.416 68.0379 64.5617 67.9406 64.722 67.8743C64.8822 67.808 65.054 67.7739 65.2275 67.7739C65.401 67.774 65.5727 67.8082 65.733 67.8746C65.8932 67.941 66.0388 68.0384 66.1614 68.1611C66.284 68.2838 66.3813 68.4294 66.4476 68.5897C66.514 68.75 66.5481 68.9218 66.548 69.0952C66.548 69.2687 66.5137 69.4404 66.4473 69.6007C66.3809 69.7609 66.2835 69.9065 66.1608 70.0291L64.0399 72.1512L65.9074 74.0186L68.0283 71.8955C68.151 71.7728 68.2967 71.6754 68.457 71.609C68.6173 71.5426 68.7891 71.5085 68.9627 71.5085C69.1362 71.5085 69.308 71.5426 69.4683 71.609C69.6286 71.6754 69.7743 71.7728 69.897 71.8955C70.0197 72.0182 70.117 72.1638 70.1834 72.3241C70.2498 72.4844 70.284 72.6563 70.284 72.8298C70.284 73.0033 70.2498 73.1751 70.1834 73.3354C70.117 73.4957 70.0197 73.6414 69.897 73.7641L67.7749 75.8861L68.3503 76.4614C68.9451 77.0565 69.7007 77.4649 70.5244 77.6366C71.3481 77.8084 72.204 77.736 72.9871 77.4283L75.4287 74.9866C75.7363 74.2034 75.8085 73.3475 75.6366 72.5238C75.4646 71.7002 75.056 70.9446 74.4607 70.3499L65.4805 61.3698L59.37 67.4813ZM77.294 78.7924C77.2845 78.7795 77.2742 78.7673 77.2631 78.7558L76.3225 77.8153C76.1624 77.9932 75.9929 78.1623 75.8146 78.3221L76.7552 79.2638C76.7665 79.275 76.7788 79.2853 76.7917 79.2946C76.9101 79.0845 77.0838 78.9108 77.294 78.7924Z" fill="white" fill-opacity="0.9"/>
</svg>
