<svg width="30" height="30" viewBox="0 0 30 30" fill="none" xmlns="http://www.w3.org/2000/svg">
<path fill-rule="evenodd" clip-rule="evenodd" d="M0.289955 5.89411C0.10422 6.07995 -8.02316e-05 6.33197 4.63071e-08 6.59471C8.03242e-05 6.85746 0.104534 7.10941 0.290383 7.29514C0.476232 7.48088 0.728252 7.58518 0.991001 7.58509C1.25375 7.58501 1.50571 7.48056 1.69144 7.29472L2.39176 6.59441L5.89333 10.0959L3.09207 12.898C2.99748 12.9894 2.92202 13.0987 2.87012 13.2195C2.81821 13.3404 2.7909 13.4704 2.78976 13.6019C2.78862 13.7334 2.81369 13.8638 2.86349 13.9855C2.9133 14.1073 2.98684 14.2179 3.07984 14.3109C3.17285 14.4039 3.28344 14.4774 3.40516 14.5272C3.52689 14.577 3.65732 14.6021 3.78884 14.6009C3.92036 14.5998 4.05033 14.5725 4.17118 14.5206C4.29202 14.4687 4.40133 14.3932 4.4927 14.2986L5.89333 12.898L17.8021 24.8066C18.4836 25.4881 19.349 25.9561 20.2924 26.1532C21.2358 26.3502 22.2163 26.2679 23.1136 25.9162L24.1067 26.9084C24.3525 27.1544 24.6588 27.3312 24.9947 27.4213C25.3306 27.5113 25.6842 27.5113 26.0201 27.4212L28.3086 29.7096C28.4005 29.8016 28.5097 29.8747 28.6299 29.9245C28.7501 29.9743 28.8789 30 29.009 30C29.1391 30 29.2679 29.9745 29.3881 29.9247C29.5084 29.875 29.6176 29.802 29.7096 29.71C29.8016 29.6181 29.8746 29.5089 29.9245 29.3887C29.9743 29.2685 30 29.1397 30 29.0096C30 28.8795 29.9745 28.7507 29.9247 28.6305C29.875 28.5103 29.802 28.401 29.71 28.309L27.4208 26.0198C27.5107 25.6838 27.5106 25.3301 27.4204 24.9942C27.3302 24.6583 27.1532 24.3521 26.9071 24.1063L25.9157 23.1141C26.2677 22.2168 26.3503 21.2362 26.1533 20.2927C25.9564 19.3491 25.4885 18.4835 24.807 17.8019L12.8982 5.89325L14.2997 4.49264C14.3917 4.40062 14.4647 4.29137 14.5145 4.17114C14.5643 4.05091 14.5899 3.92204 14.5899 3.79191C14.5899 3.66177 14.5643 3.5329 14.5145 3.41267C14.4647 3.29244 14.3917 3.18319 14.2997 3.09117C14.2077 2.99915 14.0984 2.92615 13.9782 2.87635C13.8579 2.82655 13.7291 2.80092 13.5989 2.80092C13.4688 2.80092 13.3399 2.82655 13.2197 2.87635C13.0995 2.92615 12.9902 2.99915 12.8982 3.09117L10.0969 5.89325L6.59536 2.39172L7.29482 1.69142C7.38684 1.59945 7.45985 1.49026 7.50967 1.37008C7.5595 1.2499 7.58516 1.12109 7.5852 0.990987C7.58524 0.860888 7.55966 0.732056 7.50991 0.611846C7.46016 0.491635 7.38721 0.382401 7.29525 0.290379C7.20328 0.198357 7.09409 0.125351 6.97391 0.0755274C6.85373 0.0257041 6.72491 3.97931e-05 6.59481 4.62388e-08C6.46471 -3.97006e-05 6.33587 0.0255457 6.21566 0.0752955C6.09545 0.125045 5.98621 0.197985 5.89419 0.289951L0.289955 5.89411ZM8.88551 7.1038L5.38393 3.60228L3.60318 5.383L7.10476 8.88453L8.88551 7.1038ZM11.6876 7.1038L7.1039 11.6875L10.876 15.4595L15.4597 10.8759L11.6876 7.10466V7.1038ZM12.2775 16.861L14.3785 18.9619L15.97 17.3704C16.062 17.2784 16.1713 17.2055 16.2915 17.1557C16.4117 17.106 16.5405 17.0804 16.6706 17.0804C16.8007 17.0805 16.9295 17.1061 17.0497 17.156C17.1699 17.2058 17.2791 17.2788 17.3711 17.3708C17.463 17.4628 17.536 17.5721 17.5857 17.6923C17.6355 17.8125 17.6611 17.9413 17.661 18.0714C17.661 18.2015 17.6353 18.3303 17.5855 18.4505C17.5357 18.5707 17.4627 18.6799 17.3706 18.7718L15.7799 20.3634L17.1806 21.764L18.7713 20.1716C18.8633 20.0796 18.9725 20.0066 19.0928 19.9568C19.213 19.907 19.3419 19.8813 19.472 19.8813C19.6021 19.8813 19.731 19.907 19.8512 19.9568C19.9715 20.0066 20.0807 20.0796 20.1727 20.1716C20.2648 20.2636 20.3378 20.3729 20.3876 20.4931C20.4374 20.6133 20.463 20.7422 20.463 20.8723C20.463 21.0025 20.4374 21.1313 20.3876 21.2516C20.3378 21.3718 20.2648 21.481 20.1727 21.5731L18.5812 23.1646L19.0127 23.5961C19.4588 24.0423 20.0256 24.3487 20.6433 24.4775C21.2611 24.6063 21.903 24.552 22.4903 24.3212L24.3216 22.49C24.5522 21.9026 24.6064 21.2606 24.4774 20.6429C24.3485 20.0251 24.042 19.4585 23.5956 19.0124L16.8604 12.2773L12.2775 16.861ZM25.7205 25.3443C25.7134 25.3346 25.7057 25.3255 25.6974 25.3169L24.9919 24.6114C24.8718 24.7449 24.7446 24.8718 24.6109 24.9916L25.3164 25.6978C25.3249 25.7063 25.3341 25.714 25.3438 25.721C25.4326 25.5634 25.5629 25.4331 25.7205 25.3443Z" fill="white" fill-opacity="0.9"/>
</svg>
