<svg width="33" height="30" viewBox="0 0 33 30" fill="none" xmlns="http://www.w3.org/2000/svg">
<path fill-rule="evenodd" clip-rule="evenodd" d="M10.5801 7.02185C9.26441 6.4964 7.81591 6.42978 6.4594 6.83232C5.10289 7.23486 3.91423 8.08405 3.07788 9.24811C2.24154 10.4122 1.80428 11.826 1.83397 13.2702C1.86366 14.7144 2.35863 16.1082 3.24207 17.2352C4.12551 18.3623 5.34802 19.1597 6.71988 19.5035C8.09173 19.8474 9.53622 19.7186 10.8292 19.1371C12.1221 18.5555 13.1912 17.5538 13.8706 16.2874C14.5499 15.0209 14.8015 13.5605 14.5863 12.1329C14.5494 11.8872 14.6094 11.6366 14.7531 11.4362C14.8969 11.2357 15.1126 11.1019 15.3528 11.0641C15.5931 11.0263 15.8381 11.0877 16.0341 11.2347C16.2301 11.3817 16.361 11.6023 16.3979 11.848C16.6743 13.6835 16.3505 15.561 15.4769 17.1891C14.6033 18.8172 13.2286 20.1049 11.5663 20.8524C9.90392 21.5998 8.0468 21.7653 6.28311 21.323C4.51941 20.8808 2.94775 19.8556 1.81201 18.4065C0.67627 16.9574 0.0399616 15.1655 0.00182034 13.3087C-0.0363209 11.452 0.525838 9.63432 1.60107 8.13773C2.67629 6.64113 4.20446 5.54932 5.94845 5.03172C7.69243 4.51411 9.5547 4.59965 11.2463 5.27506C11.3599 5.31864 11.4639 5.38487 11.5523 5.46991C11.6407 5.55494 11.7117 5.65708 11.7612 5.77041C11.8107 5.88373 11.8377 6.00598 11.8406 6.13005C11.8435 6.25413 11.8223 6.37755 11.7781 6.49317C11.734 6.60879 11.6679 6.71429 11.5836 6.80356C11.4993 6.89283 11.3985 6.96407 11.287 7.01317C11.1756 7.06227 11.0557 7.08824 10.9343 7.08956C10.813 7.09089 10.6926 7.06756 10.5801 7.02091V7.02185Z" fill="#01A560"/>
<path fill-rule="evenodd" clip-rule="evenodd" d="M7.32617 29.063V21.566C7.32617 21.3175 7.42271 21.0791 7.59456 20.9034C7.7664 20.7276 7.99948 20.6289 8.2425 20.6289C8.48553 20.6289 8.7186 20.7276 8.89045 20.9034C9.06229 21.0791 9.15884 21.3175 9.15884 21.566V29.063C9.15884 29.3115 9.06229 29.5499 8.89045 29.7256C8.7186 29.9014 8.48553 30.0001 8.2425 30.0001C7.99948 30.0001 7.7664 29.9014 7.59456 29.7256C7.42271 29.5499 7.32617 29.3115 7.32617 29.063Z" fill="#01A560"/>
<path fill-rule="evenodd" clip-rule="evenodd" d="M4.58691 24.3773C4.58691 24.1287 4.68346 23.8904 4.8553 23.7146C5.02715 23.5389 5.26022 23.4402 5.50325 23.4402H11.0012C11.2443 23.4402 11.4773 23.5389 11.6492 23.7146C11.821 23.8904 11.9176 24.1287 11.9176 24.3773C11.9176 24.6258 11.821 24.8642 11.6492 25.0399C11.4773 25.2157 11.2443 25.3144 11.0012 25.3144H5.50325C5.26022 25.3144 5.02715 25.2157 4.8553 25.0399C4.68346 24.8642 4.58691 24.6258 4.58691 24.3773ZM20.9911 6.81847C19.9756 6.52528 18.9051 6.49283 17.8744 6.72399C16.8437 6.95515 15.8847 7.44277 15.0824 8.14365C14.28 8.84452 13.6592 9.737 13.2748 10.742C12.8904 11.7469 12.7544 12.8334 12.8788 13.905C12.8937 14.0275 12.8847 14.1518 12.8524 14.2708C12.8202 14.3898 12.7652 14.5011 12.6908 14.5983C12.6163 14.6955 12.5238 14.7767 12.4186 14.8372C12.3134 14.8977 12.1975 14.9364 12.0776 14.951C11.9577 14.9655 11.8362 14.9557 11.72 14.9221C11.6038 14.8885 11.4953 14.8317 11.4006 14.7551C11.306 14.6784 11.227 14.5834 11.1684 14.4755C11.1098 14.3675 11.0726 14.2488 11.059 14.1261C10.8449 12.2819 11.232 10.417 12.1602 8.82076C13.0885 7.22453 14.5059 5.98626 16.1926 5.29811C17.8793 4.60996 19.741 4.51041 21.4887 5.01489C23.2364 5.51938 24.7724 6.5997 25.8583 8.08822C26.9443 9.57673 27.5195 11.3902 27.4947 13.2472C27.4698 15.1042 26.8463 16.9009 25.721 18.3585C24.5956 19.816 23.0313 20.853 21.2707 21.3084C19.5102 21.7638 17.6519 21.6122 15.9842 20.8771C15.8737 20.8285 15.7736 20.758 15.6897 20.6698C15.6058 20.5816 15.5398 20.4773 15.4953 20.363C15.4054 20.132 15.4089 19.874 15.505 19.6458C15.6011 19.4175 15.782 19.2376 16.0078 19.1457C16.2336 19.0538 16.4858 19.0573 16.7091 19.1556C17.5157 19.5132 18.3855 19.6973 19.2647 19.6967C20.1438 19.696 21.0134 19.5106 21.8195 19.1519C22.6256 18.7933 23.3511 18.269 23.9508 17.6116C24.5505 16.9542 25.0117 16.1778 25.3058 15.3305C25.5999 14.4833 25.7205 13.5832 25.6603 12.6863C25.6 11.7893 25.3602 10.9146 24.9556 10.1165C24.551 9.31827 23.9903 8.61364 23.3083 8.04631C22.6263 7.47898 21.8376 7.06105 20.9911 6.81847Z" fill="#01A560"/>
<path fill-rule="evenodd" clip-rule="evenodd" d="M24.5564 8.64031C24.3846 8.46457 24.2881 8.22625 24.2881 7.97776C24.2881 7.72927 24.3846 7.49095 24.5564 7.31522L31.4289 0.286824C31.5134 0.19732 31.6145 0.125927 31.7263 0.0768137C31.8381 0.0277003 31.9583 0.00184907 32.08 0.000767804C32.2017 -0.000313459 32.3223 0.0233975 32.435 0.0705167C32.5476 0.117636 32.6499 0.18722 32.7359 0.275209C32.8219 0.363197 32.89 0.467828 32.9361 0.582997C32.9821 0.698165 33.0053 0.821564 33.0043 0.945994C33.0032 1.07042 32.9779 1.19339 32.9299 1.30773C32.8819 1.42206 32.8121 1.52546 32.7246 1.61191L25.8521 8.64031C25.6802 8.81599 25.4472 8.91468 25.2042 8.91468C24.9612 8.91468 24.7282 8.81599 24.5564 8.64031Z" fill="#01A560"/>
<path fill-rule="evenodd" clip-rule="evenodd" d="M32.0046 6.57202C31.8843 6.57043 31.7654 6.54461 31.6548 6.49604C31.5442 6.44747 31.4441 6.3771 31.3601 6.28895C31.2761 6.2008 31.2099 6.09659 31.1653 5.98227C31.1207 5.86796 31.0986 5.74578 31.1002 5.62272L31.146 1.8986L27.5045 1.94546C27.2615 1.94869 27.0271 1.85306 26.8531 1.6796C26.679 1.50614 26.5794 1.26906 26.5762 1.02052C26.5731 0.771984 26.6666 0.53234 26.8362 0.354311C27.0058 0.176283 27.2376 0.0744518 27.4807 0.0712208L33.0025 0L32.9328 5.64614C32.9314 5.76929 32.9063 5.89094 32.8588 6.00414C32.8114 6.11733 32.7426 6.21986 32.6564 6.30585C32.5702 6.39184 32.4682 6.4596 32.3564 6.50528C32.2446 6.55095 32.125 6.57363 32.0046 6.57202Z" fill="#01A560"/>
</svg>
