<svg width="26" height="23" viewBox="0 0 26 23" fill="none" xmlns="http://www.w3.org/2000/svg">
<path d="M13.0002 23H0.000300537L0.000133382 21H9.86231C10.6342 17.5 7.1725 14.8772 4.75084 14.8772C5.37941 12.5 1.79712 12.3901 0.000300537 11.8738C0.832295 11.6438 1.70329 11.5 2.60028 11.5C8.34625 11.5 13.0002 16.6462 13.0002 23ZM26.0001 11.8738C25.1681 11.6438 24.2971 11.5 23.4002 11.5C19.5912 11.5 16.2762 13.7713 14.4562 17.1494C15.2069 18.9878 15.5926 20.9828 15.5872 23H25.9871L26.0001 21H17.0347C16.1381 17.5 18.2023 14 20.6209 14C21.7885 11.6212 24.2027 12.3918 26.0001 11.8738ZM17.4829 9.64563C15.338 6.05437 20.6085 4.58567 23.0492 2.90375C17.4722 3.105 12.5518 9.27563 12.5518 15.5L13.0002 14.4038C14.2352 12.5781 14.207 8.06335 17.4829 9.64563ZM11.2071 7C10.6688 5.43636 10.1555 4.10278 9.10024 2.90375C8.04498 1.70472 7.50918 0.637512 6.11026 0C7.98225 2.67375 9.86231 5.36312 9.86231 9C9.86231 9.30188 9.77982 9.9775 9.41403 10.5C10.6764 11.4775 10.7001 13.0688 11.2071 13.5C11.4852 11.8299 10.6342 9 11.2071 7Z" fill="#01A560"/>
</svg>
