<svg width="132" height="48" viewBox="0 0 132 48" fill="none" xmlns="http://www.w3.org/2000/svg">
<rect width="132" height="48" rx="24" fill="white"/>
<rect x="1" y="1" width="130" height="46" rx="23" stroke="#01A560" stroke-opacity="0.4" stroke-width="2"/>
<path d="M58.68 23.08C58.3707 22.4293 57.9227 21.928 57.336 21.576C56.7493 21.2133 56.0667 21.032 55.288 21.032C54.5093 21.032 53.8053 21.2133 53.176 21.576C52.5573 21.928 52.0667 22.44 51.704 23.112C51.352 23.7733 51.176 24.5413 51.176 25.416C51.176 26.2907 51.352 27.0587 51.704 27.72C52.0667 28.3813 52.5573 28.8933 53.176 29.256C53.8053 29.608 54.5093 29.784 55.288 29.784C56.376 29.784 57.272 29.4587 57.976 28.808C58.68 28.1573 59.0907 27.2773 59.208 26.168H54.76V24.984H60.76V26.104C60.6747 27.0213 60.3867 27.864 59.896 28.632C59.4053 29.3893 58.76 29.992 57.96 30.44C57.16 30.8773 56.2693 31.096 55.288 31.096C54.2533 31.096 53.3093 30.856 52.456 30.376C51.6027 29.8853 50.9253 29.208 50.424 28.344C49.9333 27.48 49.688 26.504 49.688 25.416C49.688 24.328 49.9333 23.352 50.424 22.488C50.9253 21.6133 51.6027 20.936 52.456 20.456C53.3093 19.9653 54.2533 19.72 55.288 19.72C56.472 19.72 57.5173 20.0133 58.424 20.6C59.3413 21.1867 60.008 22.0133 60.424 23.08H58.68ZM66.5091 31.144C65.6878 31.144 64.9411 30.9573 64.2691 30.584C63.6078 30.2107 63.0851 29.6827 62.7011 29C62.3278 28.3067 62.1411 27.5067 62.1411 26.6C62.1411 25.704 62.3331 24.9147 62.7171 24.232C63.1118 23.5387 63.6451 23.0107 64.3171 22.648C64.9891 22.2747 65.7411 22.088 66.5731 22.088C67.4051 22.088 68.1571 22.2747 68.8291 22.648C69.5011 23.0107 70.0291 23.5333 70.4131 24.216C70.8078 24.8987 71.0051 25.6933 71.0051 26.6C71.0051 27.5067 70.8025 28.3067 70.3971 29C70.0025 29.6827 69.4638 30.2107 68.7811 30.584C68.0985 30.9573 67.3411 31.144 66.5091 31.144ZM66.5091 29.864C67.0318 29.864 67.5225 29.7413 67.9811 29.496C68.4398 29.2507 68.8078 28.8827 69.0851 28.392C69.3731 27.9013 69.5171 27.304 69.5171 26.6C69.5171 25.896 69.3785 25.2987 69.1011 24.808C68.8238 24.3173 68.4611 23.9547 68.0131 23.72C67.5651 23.4747 67.0798 23.352 66.5571 23.352C66.0238 23.352 65.5331 23.4747 65.0851 23.72C64.6478 23.9547 64.2958 24.3173 64.0291 24.808C63.7625 25.2987 63.6291 25.896 63.6291 26.6C63.6291 27.3147 63.7571 27.9173 64.0131 28.408C64.2798 28.8987 64.6318 29.2667 65.0691 29.512C65.5065 29.7467 65.9865 29.864 66.5091 29.864ZM76.7435 31.144C75.9222 31.144 75.1755 30.9573 74.5035 30.584C73.8422 30.2107 73.3195 29.6827 72.9355 29C72.5622 28.3067 72.3755 27.5067 72.3755 26.6C72.3755 25.704 72.5675 24.9147 72.9515 24.232C73.3462 23.5387 73.8795 23.0107 74.5515 22.648C75.2235 22.2747 75.9755 22.088 76.8075 22.088C77.6395 22.088 78.3915 22.2747 79.0635 22.648C79.7355 23.0107 80.2635 23.5333 80.6475 24.216C81.0422 24.8987 81.2395 25.6933 81.2395 26.6C81.2395 27.5067 81.0368 28.3067 80.6315 29C80.2368 29.6827 79.6982 30.2107 79.0155 30.584C78.3328 30.9573 77.5755 31.144 76.7435 31.144ZM76.7435 29.864C77.2662 29.864 77.7568 29.7413 78.2155 29.496C78.6742 29.2507 79.0422 28.8827 79.3195 28.392C79.6075 27.9013 79.7515 27.304 79.7515 26.6C79.7515 25.896 79.6128 25.2987 79.3355 24.808C79.0582 24.3173 78.6955 23.9547 78.2475 23.72C77.7995 23.4747 77.3142 23.352 76.7915 23.352C76.2582 23.352 75.7675 23.4747 75.3195 23.72C74.8822 23.9547 74.5302 24.3173 74.2635 24.808C73.9968 25.2987 73.8635 25.896 73.8635 26.6C73.8635 27.3147 73.9915 27.9173 74.2475 28.408C74.5142 28.8987 74.8662 29.2667 75.3035 29.512C75.7408 29.7467 76.2208 29.864 76.7435 29.864ZM86.7699 22.088C87.5272 22.088 88.1885 22.2533 88.7539 22.584C89.3299 22.9147 89.7565 23.3307 90.0339 23.832V22.232H91.5059V31.192C91.5059 31.992 91.3352 32.7013 90.9939 33.32C90.6525 33.9493 90.1619 34.44 89.5219 34.792C88.8925 35.144 88.1565 35.32 87.3139 35.32C86.1619 35.32 85.2019 35.048 84.4339 34.504C83.6659 33.96 83.2125 33.2187 83.0739 32.28H84.5139C84.6739 32.8133 85.0045 33.24 85.5059 33.56C86.0072 33.8907 86.6099 34.056 87.3139 34.056C88.1139 34.056 88.7645 33.8053 89.2659 33.304C89.7779 32.8027 90.0339 32.0987 90.0339 31.192V29.352C89.7459 29.864 89.3192 30.2907 88.7539 30.632C88.1885 30.9733 87.5272 31.144 86.7699 31.144C85.9912 31.144 85.2819 30.952 84.6419 30.568C84.0125 30.184 83.5165 29.6453 83.1539 28.952C82.7912 28.2587 82.6099 27.4693 82.6099 26.584C82.6099 25.688 82.7912 24.904 83.1539 24.232C83.5165 23.5493 84.0125 23.0213 84.6419 22.648C85.2819 22.2747 85.9912 22.088 86.7699 22.088ZM90.0339 26.6C90.0339 25.9387 89.9005 25.3627 89.6339 24.872C89.3672 24.3813 89.0045 24.008 88.5459 23.752C88.0979 23.4853 87.6019 23.352 87.0579 23.352C86.5139 23.352 86.0179 23.48 85.5699 23.736C85.1219 23.992 84.7645 24.3653 84.4979 24.856C84.2312 25.3467 84.0979 25.9227 84.0979 26.584C84.0979 27.256 84.2312 27.8427 84.4979 28.344C84.7645 28.8347 85.1219 29.2133 85.5699 29.48C86.0179 29.736 86.5139 29.864 87.0579 29.864C87.6019 29.864 88.0979 29.736 88.5459 29.48C89.0045 29.2133 89.3672 28.8347 89.6339 28.344C89.9005 27.8427 90.0339 27.2613 90.0339 26.6ZM95.4224 19.16V31H93.9664V19.16H95.4224ZM105.904 26.28C105.904 26.5573 105.888 26.8507 105.856 27.16H98.8479C98.9012 28.024 99.1945 28.7013 99.7279 29.192C100.272 29.672 100.928 29.912 101.696 29.912C102.325 29.912 102.848 29.768 103.264 29.48C103.691 29.1813 103.989 28.7867 104.16 28.296H105.728C105.493 29.1387 105.024 29.8267 104.32 30.36C103.616 30.8827 102.741 31.144 101.696 31.144C100.864 31.144 100.117 30.9573 99.4559 30.584C98.8052 30.2107 98.2932 29.6827 97.9199 29C97.5465 28.3067 97.3599 27.5067 97.3599 26.6C97.3599 25.6933 97.5412 24.8987 97.9039 24.216C98.2665 23.5333 98.7732 23.0107 99.4239 22.648C100.085 22.2747 100.843 22.088 101.696 22.088C102.528 22.088 103.264 22.2693 103.904 22.632C104.544 22.9947 105.035 23.496 105.376 24.136C105.728 24.7653 105.904 25.48 105.904 26.28ZM104.4 25.976C104.4 25.4213 104.277 24.9467 104.032 24.552C103.787 24.1467 103.451 23.8427 103.024 23.64C102.608 23.4267 102.144 23.32 101.632 23.32C100.896 23.32 100.267 23.5547 99.7439 24.024C99.2319 24.4933 98.9385 25.144 98.8639 25.976H104.4Z" fill="#878787"/>
<path d="M36.9625 24.5661H36.354V24.5322H29.5547V27.7983H33.8243C33.2014 29.6996 31.5277 31.0644 29.5547 31.0644C27.0515 31.0644 25.0219 28.8708 25.0219 26.1652C25.0219 23.4597 27.0515 21.2661 29.5547 21.2661C30.7102 21.2661 31.7615 21.7372 32.5619 22.5068L34.6988 20.1973C33.3495 18.8382 31.5447 18 29.5547 18C25.3826 18 22 21.656 22 26.1652C22 30.6745 25.3826 34.3305 29.5547 34.3305C33.7269 34.3305 37.1095 30.6745 37.1095 26.1652C37.1095 25.6178 37.0574 25.0834 36.9625 24.5661Z" fill="#FFC107"/>
<path d="M22.8716 22.3647L25.3537 24.3322C26.0253 22.535 27.6518 21.2661 29.5553 21.2661C30.7108 21.2661 31.762 21.7372 32.5624 22.5068L34.6993 20.1973C33.35 18.8382 31.5452 18 29.5553 18C26.6535 18 24.137 19.7706 22.8716 22.3647Z" fill="#FF3D00"/>
<path d="M29.555 34.3305C31.5063 34.3305 33.2794 33.5233 34.62 32.2108L32.2818 30.0723C31.4979 30.7167 30.5399 31.0652 29.555 31.0644C27.59 31.0644 25.9215 29.7102 25.2929 27.8203L22.8293 29.8718C24.0797 32.5161 26.6188 34.3305 29.555 34.3305Z" fill="#4CAF50"/>
<path d="M36.9625 24.5661H36.354V24.5322H29.5547V27.7983H33.8243C33.5263 28.7032 32.9896 29.4939 32.2804 30.0728L32.2816 30.0719L34.6198 32.2104C34.4543 32.3729 37.1094 30.2479 37.1094 26.1653C37.1094 25.6178 37.0573 25.0834 36.9625 24.5661Z" fill="#1976D2"/>
</svg>
